<?xml version="1.0" encoding="UTF-8" standalone="no"?> <svg id="Layer_1" enable-background="new 0 0 512.023 512.023" height="512" viewBox="0 0 512.023 512.023" width="512" xmlns="http://www.w3.org/2000/svg"><g><path d="m106.281 0v150.99l102.182 66.53v-217.52z" fill="#bee75e"/><path d="m303.56 0v217.519l102.183-66.529v-150.99z" fill="#bee75e"/><path d="m303.56 0v217.519l102.183-66.529v-150.99z" fill="#5bc980"/><path d="m178.463 0v197.987l72.986 47.52h9.125l72.986-47.521v-197.986z" fill="#5bc980"/><path d="m333.56 197.986v-197.986h-77.549v245.507h4.563z" fill="#00a78e"/><path d="m256.011 215.507c-24.814 0-45.002 20.188-45.002 45.002v34.447h90.004v-34.447c0-24.814-20.187-45.002-45.002-45.002z" fill="#f6f9f9"/><path d="m301.013 260.509c0-24.814-20.188-45.002-45.002-45.002v79.449h45.002z" fill="#ececef"/><circle cx="256.011" cy="386.431" fill="#ececef" r="125.593"/><path d="m256.011 260.838v251.186c69.252 0 125.593-56.341 125.593-125.593s-56.341-125.593-125.593-125.593z" fill="#dddddf"/><ellipse cx="256.012" cy="386.431" fill="#f6f9f9" rx="72.182" ry="72.182" transform="matrix(.383 -.924 .924 .383 -198.975 475.074)"/><path d="m256.011 314.249v144.364c39.802 0 72.183-32.381 72.183-72.182s-32.381-72.182-72.183-72.182z" fill="#ececef"/></g></svg>