<svg id="Layer_1" data-name="Layer 1" xmlns="http://www.w3.org/2000/svg" xmlns:xlink="http://www.w3.org/1999/xlink" viewBox="0 0 504.26 338.3" width="406" height="306" class="illustration styles_illustrationTablet__1DWOa"><defs><linearGradient id="linear-gradient" x1="224.56" y1="101.33" x2="394.18" y2="455.34" gradientUnits="userSpaceOnUse"><stop offset="0" stop-color="#010101" stop-opacity="0"></stop><stop offset="0.95" stop-color="#010101"></stop></linearGradient><linearGradient id="linear-gradient-2" x1="162.17" y1="159.44" x2="205.26" y2="249.39" xlink:href="#linear-gradient"></linearGradient><linearGradient id="linear-gradient-3" x1="344.96" y1="99.71" x2="386.86" y2="187.17" xlink:href="#linear-gradient"></linearGradient><linearGradient id="linear-gradient-4" x1="212.11" y1="103.46" x2="173.18" y2="123.46" gradientTransform="translate(-24.69 -12.9) rotate(9.05)" xlink:href="#linear-gradient"></linearGradient><linearGradient id="linear-gradient-5" x1="158.91" y1="169.41" x2="181.86" y2="159.84" xlink:href="#linear-gradient"></linearGradient><linearGradient id="linear-gradient-6" x1="138.32" y1="169.9" x2="183.33" y2="147.83" xlink:href="#linear-gradient"></linearGradient><linearGradient id="linear-gradient-7" x1="170.03" y1="167.31" x2="135.68" y2="148.39" xlink:href="#linear-gradient"></linearGradient><linearGradient id="linear-gradient-8" x1="144.6" y1="150.81" x2="116.44" y2="147.87" xlink:href="#linear-gradient"></linearGradient><linearGradient id="linear-gradient-9" x1="146.37" y1="123.34" x2="106.65" y2="136.24" xlink:href="#linear-gradient"></linearGradient><linearGradient id="linear-gradient-10" x1="142.61" y1="138.94" x2="119.49" y2="133.57" xlink:href="#linear-gradient"></linearGradient><linearGradient id="linear-gradient-11" x1="163.72" y1="134.03" x2="142.27" y2="143.67" xlink:href="#linear-gradient"></linearGradient><linearGradient id="linear-gradient-12" x1="153.19" y1="139.94" x2="152.81" y2="145.65" xlink:href="#linear-gradient"></linearGradient><linearGradient id="linear-gradient-13" x1="150.37" y1="104.75" x2="178.25" y2="70.78" xlink:href="#linear-gradient"></linearGradient><linearGradient id="linear-gradient-14" x1="170.35" y1="149.59" x2="147.03" y2="79.4" xlink:href="#linear-gradient"></linearGradient><linearGradient id="linear-gradient-15" x1="175.48" y1="147.84" x2="154.68" y2="85.22" xlink:href="#linear-gradient"></linearGradient><linearGradient id="linear-gradient-16" x1="149.9" y1="92.89" x2="155.2" y2="92.16" xlink:href="#linear-gradient"></linearGradient><linearGradient id="linear-gradient-17" x1="157.71" y1="169.56" x2="-274.59" y2="328.74" xlink:href="#linear-gradient"></linearGradient><linearGradient id="linear-gradient-18" x1="245.1" y1="224.53" x2="-69.42" y2="340.34" xlink:href="#linear-gradient"></linearGradient><linearGradient id="linear-gradient-19" x1="356.56" y1="161.32" x2="-258.32" y2="387.73" xlink:href="#linear-gradient"></linearGradient><linearGradient id="linear-gradient-20" x1="446.02" y1="206.64" x2="5.49" y2="368.84" xlink:href="#linear-gradient"></linearGradient><linearGradient id="linear-gradient-21" x1="426.62" y1="161.76" x2="453.81" y2="157.27" xlink:href="#linear-gradient"></linearGradient><linearGradient id="linear-gradient-22" x1="-110.06" y1="204.93" x2="-87.12" y2="195.37" gradientTransform="matrix(-1, 0, 0, 1, 323.34, 0)" xlink:href="#linear-gradient"></linearGradient><linearGradient id="linear-gradient-23" x1="-130.66" y1="205.42" x2="-85.65" y2="183.35" gradientTransform="matrix(-1, 0, 0, 1, 323.34, 0)" xlink:href="#linear-gradient"></linearGradient><linearGradient id="linear-gradient-24" x1="-98.95" y1="202.83" x2="-133.3" y2="183.92" gradientTransform="matrix(-1, 0, 0, 1, 323.34, 0)" xlink:href="#linear-gradient"></linearGradient><linearGradient id="linear-gradient-25" x1="-124.38" y1="186.33" x2="-152.54" y2="183.4" gradientTransform="matrix(-1, 0, 0, 1, 323.34, 0)" xlink:href="#linear-gradient"></linearGradient><linearGradient id="linear-gradient-26" x1="-122.61" y1="158.87" x2="-162.33" y2="171.77" gradientTransform="matrix(-1, 0, 0, 1, 323.34, 0)" xlink:href="#linear-gradient"></linearGradient><linearGradient id="linear-gradient-27" x1="-126.37" y1="174.46" x2="-149.49" y2="169.1" gradientTransform="matrix(-1, 0, 0, 1, 323.34, 0)" xlink:href="#linear-gradient"></linearGradient><linearGradient id="linear-gradient-28" x1="-105.26" y1="169.55" x2="-126.71" y2="179.19" gradientTransform="matrix(-1, 0, 0, 1, 323.34, 0)" xlink:href="#linear-gradient"></linearGradient><linearGradient id="linear-gradient-29" x1="-115.79" y1="175.46" x2="-116.17" y2="181.17" gradientTransform="matrix(-1, 0, 0, 1, 323.34, 0)" xlink:href="#linear-gradient"></linearGradient><linearGradient id="linear-gradient-30" x1="-118.61" y1="140.28" x2="-90.73" y2="106.3" gradientTransform="matrix(-1, 0, 0, 1, 323.34, 0)" xlink:href="#linear-gradient"></linearGradient><linearGradient id="linear-gradient-31" x1="-98.63" y1="185.12" x2="-121.95" y2="114.93" gradientTransform="matrix(-1, 0, 0, 1, 323.34, 0)" xlink:href="#linear-gradient"></linearGradient><linearGradient id="linear-gradient-32" x1="-93.5" y1="183.36" x2="-114.3" y2="120.75" gradientTransform="matrix(-1, 0, 0, 1, 323.34, 0)" xlink:href="#linear-gradient"></linearGradient><linearGradient id="linear-gradient-33" x1="-119.08" y1="128.42" x2="-113.78" y2="127.68" gradientTransform="matrix(-1, 0, 0, 1, 323.34, 0)" xlink:href="#linear-gradient"></linearGradient></defs><title>Career 3</title><path d="M496.71,298.53c-7.69,26-14.68,53.14-31.33,74.58-1.33,1.73-2.72,3.39-4.17,5C448.92,391.92,433,402,415.61,408.57a156.66,156.66,0,0,1-52.27,9.73c-2,0-4.07,0-6.11,0a243.16,243.16,0,0,1-45.6-5.22c-14.27-2.9-28.42-6.76-42.42-11q-9.36-2.87-18.62-5.83c-9-2.88-18-5.81-27-8.65a520.51,520.51,0,0,0-50.39-13.69,263.07,263.07,0,0,0-34.48-5c-3.67-.28-7.41-.47-11.12-.68-8.59-.47-17.14-1.09-25.48-3.19-12.67-3.18-24.19-9.73-35.5-16.28-21.13-12.29-43.19-26.16-53.81-48.22-26-54.06,25.39-103.06,74.94-113.07,13.44-2.69,26.85-2.78,39.85-5.93a70.35,70.35,0,0,0,12.7-4.35c9.89-4.52,18.66-10.82,27.31-17.37,14.09-10.69,27.74-22,45-27.24,32.31-9.86,65.74,5.5,99,12.91,3,.68,6,1.27,9,1.79a223.23,223.23,0,0,0,36.61,2.78c20.26.19,40.68-1.05,60.92.5,32.47,2.5,67.34,14.76,83.07,43.28C518.58,225.29,506.87,264.06,496.71,298.53Z" transform="translate(-5.85 -80.02)" fill="#68e1fd" opacity="0.24" style="isolation: isolate;"></path><polygon points="448.01 39.7 446.04 47.12 437.67 78.66 428.68 76.31 434.08 55.83 289.6 160.89 218.36 138.31 52.4 265.56 46.75 258.21 216.57 128.02 287.96 150.64 427.29 49.31 406.56 49.65 406.43 40.38 447.02 39.7 448.01 39.7" fill="#68e1fd"></polygon><polygon points="448.01 39.7 446.04 47.12 437.67 78.66 428.68 76.31 434.08 55.83 289.6 160.89 218.36 138.31 52.4 265.56 46.75 258.21 216.57 128.02 287.96 150.64 427.29 49.31 406.56 49.65 406.43 40.38 447.02 39.7 448.01 39.7" fill="url(#linear-gradient)"></polygon><polygon points="177.85 157.74 177.88 169.47 157.73 184.62 162.38 169.63 177.85 157.74" fill="url(#linear-gradient-2)"></polygon><polygon points="360.47 97.93 360.54 109.16 340.39 124.31 345.05 109.33 360.47 97.93" fill="url(#linear-gradient-3)"></polygon><path d="M173.23,155.48V373.94a260,260,0,0,0-34.48-5.14c-3.67-.28-7.41-.47-11.12-.69V155.48Z" transform="translate(-5.85 -80.02)" fill="#68e1fd"></path><path d="M269.21,238V402.11q-9.36-2.87-18.62-5.83c-9-2.88-18-5.81-27-8.65V238Z" transform="translate(-5.85 -80.02)" fill="#68e1fd"></path><path d="M357.23,104.31v314a243.16,243.16,0,0,1-45.6-5.22V104.31Z" transform="translate(-5.85 -80.02)" fill="#68e1fd"></path><path d="M461.21,191.27V378.11C448.92,391.92,433,402,415.61,408.57V191.27Z" transform="translate(-5.85 -80.02)" fill="#68e1fd"></path><path d="M164.17,106.07c4.67,4.13,5.11,10.41,5.5,13.28a34.06,34.06,0,0,1,0,10.76,18,18,0,0,1-4.78,9.5,1.92,1.92,0,0,1-.7.5,2,2,0,0,1-1.7-.56,5.65,5.65,0,0,1-1.91-2c-1-2.08.63-4.35,1.56-6.45,2-4.42.91-9.54-.49-14.16-.64-2.11-2.66-12.7.17-12.38C162.76,104.66,162.74,104.81,164.17,106.07Z" transform="translate(-5.85 -80.02)" fill="#68e1fd"></path><path d="M163.05,109.87c4,4.81,3.41,11.09,3.34,14a34,34,0,0,1-1.73,10.61,18,18,0,0,1-6.22,8.64,1.86,1.86,0,0,1-.77.38,2,2,0,0,1-1.59-.82,5.67,5.67,0,0,1-1.57-2.28c-.63-2.21,1.31-4.21,2.56-6.13,2.62-4.05,2.4-9.28,1.74-14.06-.3-2.18-.63-13,2.11-12.2C161.87,108.25,161.83,108.39,163.05,109.87Z" transform="translate(-5.85 -80.02)" fill="url(#linear-gradient-4)"></path><path d="M163,177c-.07,1.31-.14,2.75.66,3.8,2.07-1.24,2.69-3.92,3-6.31a52.4,52.4,0,0,0-.4-14.26,6.33,6.33,0,0,0-.65-2.18,5.85,5.85,0,0,0-2.71-2.16,4.45,4.45,0,0,0-2.15-.56,1.81,1.81,0,0,0-1.69,1.23,2.94,2.94,0,0,0,.15,1.37,19.26,19.26,0,0,0,1.62,4.59,13.23,13.23,0,0,1,1.63,3.8A33.89,33.89,0,0,1,163,177Z" transform="translate(-5.85 -80.02)" fill="url(#linear-gradient-5)"></path><path d="M134.72,159.71a9.91,9.91,0,0,0,5.48,1.69c.71,0,1.42.07,2.14.11a4,4,0,0,1,3.82,3.8q.09,2.22.09,4.44c0,3.54-.13,7.24,1.43,10.42.33.66.85,1.37,1.59,1.38a1.7,1.7,0,0,0,1.08-.44,5.45,5.45,0,0,0,1.86-3.08,14.94,14.94,0,0,0,.32-3.66c0-4.69-.41-9.48-2.24-13.8a9.41,9.41,0,0,0-.71-1.42,8.27,8.27,0,0,0-5.08-3.38,20.19,20.19,0,0,0-6.21-.33c-1,.07-2,.15-3,.2-.55,0-2.62-.28-3,0C131.51,156.32,134.14,159.26,134.72,159.71Z" transform="translate(-5.85 -80.02)" fill="url(#linear-gradient-6)"></path><path d="M175.89,157.35c.21,4.67-5.75,27.87-7,28.73-1.08.74-3-.24-4.14-.92l-.52-.38c-.87-.64.52-18.47.52-18.47s.44-6.05-3.8-9.58c-4.72-3.92-10.13-7.53-9.76-10.31a1.82,1.82,0,0,1,.5-1.12c2.38-2.84,15.91-.68,18.75,1.42l.15.1a.1.1,0,0,1,0,.06c.07.06.16.18.31.34s.56.68.93,1.14a34.79,34.79,0,0,1,2.69,4.36A12.81,12.81,0,0,1,175.89,157.35Z" transform="translate(-5.85 -80.02)" fill="#606161"></path><path d="M174.5,152.72c0,1.2-9.3-.81-10.44,1.2s1.39,1.21,2.28,5.66,0,22.83-1,24.77a2.27,2.27,0,0,1-.65.81l-.52-.38c-.87-.64.52-18.47.52-18.47s.44-6.05-3.8-9.58c0,0,.65-4-2.28-6.3a35.29,35.29,0,0,0-7.48-4,36.54,36.54,0,0,1,10.94-1.73,21.87,21.87,0,0,1,8.31,2l.15.1a.1.1,0,0,1,0,.06c.07.06.16.18.31.34s.56.68.93,1.14C173,149.88,174.5,152,174.5,152.72Z" transform="translate(-5.85 -80.02)" fill="url(#linear-gradient-7)"></path><path d="M157.41,184.32a9.46,9.46,0,0,1-2.34,3.71,3.65,3.65,0,0,1-4.11.59c-1.46-.9-1.73-2.82-1.89-4.48-.49-5.81-.52-15.91-1-21.72a2.56,2.56,0,0,0-.83-1.7l0,0a7.74,7.74,0,0,0-2.47-1.27c-1.76-.59-4-1-5.6-2.13a5.41,5.41,0,0,1-1.51-1.39c-2.9-4-4-12.08-1.57-15.94a4.17,4.17,0,0,1,3.18-2.16c4.2-.53,11.77,2.22,13.53,6a18.37,18.37,0,0,0,1.6,3.68c1.4,1.94,4.14,2.53,5.5,4.51a8.24,8.24,0,0,1,1.12,3.4A53,53,0,0,1,157.41,184.32Z" transform="translate(-5.85 -80.02)" fill="#606161"></path><path d="M148,159.33a2,2,0,0,1-.06,1.79c-.25-.12-.46-.28-.71-.4l0,0c-.81-.43-1.64-.87-2.47-1.27-1.18-.52-2.41-1-3.65-1.45-.65-.22-1.3-.43-1.95-.68a5.41,5.41,0,0,1-1.51-1.39c-2.9-4-4-12.08-1.57-15.94a19.34,19.34,0,0,1,6.76,2.25c1.27.62,2.53,1.21,3.74,1.92.8.46,2.44,1.14,1.17,2-1.73,1.2-5-.93-6.36,1a3,3,0,0,0-.37,1.45c-.06.74-.13,1.51-.19,2.29a5.59,5.59,0,0,0,.13,2,4.56,4.56,0,0,0,1.79,2,46.07,46.07,0,0,1,4.14,2.88A4.67,4.67,0,0,1,148,159.33Z" transform="translate(-5.85 -80.02)" fill="url(#linear-gradient-8)"></path><path d="M150.76,195.5a8.75,8.75,0,0,0,1.73,1.29l2.7,1.68c1,.61,2.26,1.2,3.17.52s.76-1.87.44-2.84a9,9,0,0,0-2.45-3.78,2.36,2.36,0,0,1-.59-.67,2.16,2.16,0,0,1-.12-.88l0-2.78c0-2.81-3.87-2.31-5.09-.64C149.06,189.45,149,193.62,150.76,195.5Z" transform="translate(-5.85 -80.02)" fill="#606161"></path><path d="M164.29,192a6,6,0,0,0,2.8,2.29,20.05,20.05,0,0,0,3.42,1.26,1.58,1.58,0,0,0,1.49-.12,1.43,1.43,0,0,0,.36-.74,5.53,5.53,0,0,0-1.36-5,9.07,9.07,0,0,1-1.49-1.61A7.45,7.45,0,0,1,169,185c-.22-2.32-3.92-1.72-4.82-.21S163.5,190.57,164.29,192Z" transform="translate(-5.85 -80.02)" fill="#606161"></path><path d="M135.19,137.71a4.65,4.65,0,0,0,.65,2.71,5,5,0,0,0,1.84,1.31c3.44,1.73,6.94,3.48,10.72,4.19s7.95.27,11-2a6.64,6.64,0,0,0,2.41-3.18c.49-1.56.16-3.24.08-4.88-.21-4.07,1.15-8,2.1-12s1.45-8.32-.35-12c-1.42-2.88,1.63-5.3-1.06-7.06-3.78-2.48-8.22-3.68-14.41-2.76-2.4.36-10.59,3.73-11.47,6s1.7,4.56,1.4,7C137.18,122.42,135.19,130.2,135.19,137.71Z" transform="translate(-5.85 -80.02)" fill="#68e1fd"></path><path d="M140.21,124.53c0-1.14,1-2,1.76-2.84a8.23,8.23,0,0,0,1.95-5.84c-.07-1.2-.87-2.69-2-2.44a2.16,2.16,0,0,0-.77.39,14.06,14.06,0,0,0-5.56,7.75,7.4,7.4,0,0,0-.24,3.46,8,8,0,0,0,2.55,3.92,21.61,21.61,0,0,0,8,4.8c.79.26,3.22,1.06,2.68-.47C148.25,132.4,140.17,125.64,140.21,124.53Z" transform="translate(-5.85 -80.02)" fill="url(#linear-gradient-9)"></path><path d="M140.09,138.4a.9.9,0,0,1,.31-.33A1.05,1.05,0,0,1,141,138a19.14,19.14,0,0,0,3.55,0,2.3,2.3,0,0,0,1.07-.28.84.84,0,0,0,.36-1c-.16-.35-.59-.46-1-.55a15.71,15.71,0,0,1-3.76-1.38,20,20,0,0,0-3.26-1.58c-.9-.26-2.14-.16-2.45.73a2,2,0,0,0-.1.64l-.13,2.7a5.73,5.73,0,0,0,.37,2.94,5.81,5.81,0,0,0,3.24,2.33,1.87,1.87,0,0,0,1.22.18C139.54,141.36,139.17,139.84,140.09,138.4Z" transform="translate(-5.85 -80.02)" fill="url(#linear-gradient-10)"></path><path d="M142.37,137.76l15.64.74.78.24s-1.52,5.22-4.3,5S142.37,137.76,142.37,137.76Z" transform="translate(-5.85 -80.02)" fill="url(#linear-gradient-11)"></path><path d="M149.33,140.56l7.63.05s-1.62,2.66-3,2.81Z" transform="translate(-5.85 -80.02)" fill="#68e1fd"></path><path d="M149.33,140.56l7.63.05s-1.62,2.66-3,2.81Z" transform="translate(-5.85 -80.02)" fill="url(#linear-gradient-12)"></path><path d="M135.24,109a52.31,52.31,0,0,0-6.71,9.28c-1.34,2.35-2.53,5-2.12,7.67a9.25,9.25,0,0,0,3.8,5.75,27.14,27.14,0,0,0,6.28,3.2l6.61,2.68a3.73,3.73,0,0,0,1.56.38c1.69-.09,2.39-2.41,1.7-3.95s-2.18-2.53-3.35-3.74-4.59-3.13-5.1-4.92a2,2,0,0,1-.07-1,2.12,2.12,0,0,1,.67-.85c3.68-3.38,8.79-9.36,7.75-14.45C145,102.74,138.13,105.78,135.24,109Z" transform="translate(-5.85 -80.02)" fill="#68e1fd"></path><path d="M151.34,109.69a4.15,4.15,0,0,0,4.5-.41,3.37,3.37,0,0,0,1.11-2c.33-2.21-1.54-4.27-1.37-6.5.08-1.12.66-2.25.26-3.29-.33-.89-5.3-2.34-5.48-1.4C149.09,102.66,145.92,107,151.34,109.69Z" transform="translate(-5.85 -80.02)" fill="#f4a982"></path><path d="M151.07,96.39s-.52,9.68,4.7,9c0,0,.82-.11.57-1.31s-1.25-2.42-1.2-3.48S151.07,96.39,151.07,96.39Z" transform="translate(-5.85 -80.02)" fill="url(#linear-gradient-13)"></path><path d="M164.09,90.38c-.31,2.78-2.1,5.93-3.22,7.87a10.62,10.62,0,0,1-2.75,3.37,4.37,4.37,0,0,1-4.14.62,5.7,5.7,0,0,1-2.59-3,13.38,13.38,0,0,1-1.3-6.18c.13-2.22,1.18-6.45,4.33-4.85.65.34,1.08,1,1.7,1.36a2.86,2.86,0,0,0,2.93.16c.34-.19.71-.47,1.08-.34a1.42,1.42,0,0,1,.47.31,2.24,2.24,0,0,0,2.65,0A1.28,1.28,0,0,0,164.09,90.38Z" transform="translate(-5.85 -80.02)" fill="#f4a982"></path><path d="M154.88,136.56a4.85,4.85,0,0,1,.53,3.1,1.43,1.43,0,0,1-.15.59,1.14,1.14,0,0,1-.63.44c-1.86.64-3.73-1-5.7-1.11a14.42,14.42,0,0,1-1.47,0,4.52,4.52,0,0,1-1.73-.75c-.57-.35-1.12-.72-1.66-1.11-1.32-.95-.75-2.65.33-3.56a2.49,2.49,0,0,1,2.87-.28C149.57,134.67,153.39,134.28,154.88,136.56Z" transform="translate(-5.85 -80.02)" fill="#f4a982"></path><path d="M166.61,136.89a1.25,1.25,0,0,1,.45.49,1.19,1.19,0,0,1,.05.65,7.4,7.4,0,0,1-1.36,3.52,2,2,0,0,1-1.27.95c-1,.14-1.66-.86-2.56-1.23s-2.09-.06-2.93-.62a2.74,2.74,0,0,1-1-2.15c-.11-1.61,2.42-2.7,3.79-3C163.42,135.05,165.34,136,166.61,136.89Z" transform="translate(-5.85 -80.02)" fill="#f4a982"></path><path d="M162.56,132a3.72,3.72,0,0,1,1.65-2,3.16,3.16,0,0,1,1.06-.19,112,112,0,0,1,24.21.8A1.68,1.68,0,0,1,189,132a149.06,149.06,0,0,1-12.11,14.54,3.23,3.23,0,0,1-.93.72,3,3,0,0,1-1.51.12c-1.3-.13-2.58-.34-3.87-.54a106.94,106.94,0,0,0-15.37-1.18,12.07,12.07,0,0,1-3.55-.34,11.43,11.43,0,0,1-2.4-1.13,43.35,43.35,0,0,1-7.67-5.14c-.18-.16-.38-.37-.34-.61s.28-.38.5-.47c2.53-1,3.74,1.05,6.08,2.42,1.43.85,3.83,2.63,5.41,3.1s3.21-2.19,4.05-3.21A36.75,36.75,0,0,0,162.56,132Z" transform="translate(-5.85 -80.02)" fill="#68e1fd"></path><path d="M189,132c-.44.55-.87,1.14-1.3,1.7a130.87,130.87,0,0,1-10.81,12.82,3.61,3.61,0,0,1-.93.74,3.65,3.65,0,0,1-1.51.12c-1.3-.12-2.6-.37-3.9-.55A98,98,0,0,0,156,145.67a7.13,7.13,0,0,0-.8,0c-.49,0-1,0-1.45,0a7.85,7.85,0,0,1-2.1-.31,11.78,11.78,0,0,1-2.41-1.14c-1.73-1-3.49-2-5.13-3.15a22.06,22.06,0,0,1-2.53-2,.74.74,0,0,1-.34-.62c0-.24.27-.37.49-.46,2.53-1,3.28.65,5.6,2,1.42.84,4.33,3,5.9,3.48s3.21-2.18,4-3.2a37.41,37.41,0,0,0,5.31-8.28,3.62,3.62,0,0,1,1.64-2,3,3,0,0,1,1-.22,115.4,115.4,0,0,1,24.22.81A1.73,1.73,0,0,1,189,132Z" transform="translate(-5.85 -80.02)" fill="url(#linear-gradient-14)"></path><path d="M189,132a167.84,167.84,0,0,1-12.1,14.53,3.61,3.61,0,0,1-.93.74,3.65,3.65,0,0,1-1.51.12c-1.3-.12-2.6-.37-3.9-.55A98,98,0,0,0,156,145.67a10.88,10.88,0,0,0,1.79-2,38.44,38.44,0,0,0,5.29-8.28c.37-.81,2.09-3.41,2.93-3.75a3.87,3.87,0,0,1,1.05-.19A110.06,110.06,0,0,1,189,132Z" transform="translate(-5.85 -80.02)" fill="url(#linear-gradient-15)"></path><path d="M167.21,87.65c1.45-.49,1.94-2.53,1.17-3.86a4.64,4.64,0,0,0-3.86-2.13,1.08,1.08,0,0,1-.77-.19,1.93,1.93,0,0,1-.38-.49c-.52-.83-1.66-1-2.65-1a5.55,5.55,0,0,0-2.78.47,14.2,14.2,0,0,1-2,1.32,10.06,10.06,0,0,1-2.41.22,3.44,3.44,0,0,0-2.5,1.79,3.74,3.74,0,0,1-.53,1,6.89,6.89,0,0,1-.65.49,3.77,3.77,0,0,0-1.32,2.91,11.46,11.46,0,0,0,.55,3.24,1.24,1.24,0,0,0,.28.56c.34.28,1.5,1.13,1.72.76.43-.77.21-2.46,1.1-2.89s.79.34,1.47.77a2.85,2.85,0,0,0,2.38.25c.4-.16.78-.37,1.18-.53a1.68,1.68,0,0,1,1.23-.06c.74.34.84,1.39,1.49,1.88a1.64,1.64,0,0,0,2.22-.52,1.93,1.93,0,0,0,.62,1,.81.81,0,0,0,1.11-.06c.15-.19.19-.5.37-.68a1,1,0,0,1,.68-.22,2.6,2.6,0,0,0,1.27,0,2.85,2.85,0,0,0,2-1.73A1.83,1.83,0,0,0,167.21,87.65Z" transform="translate(-5.85 -80.02)" fill="#606161"></path><path d="M150.16,91.25a.77.77,0,0,0-.42-.08.69.69,0,0,0-.51.4,1.54,1.54,0,0,0-.13.67,4.27,4.27,0,0,0,.09,1,1.69,1.69,0,0,0,1.12,1.37,1.11,1.11,0,0,0,1.27-.77A2.58,2.58,0,0,0,150.16,91.25Z" transform="translate(-5.85 -80.02)" fill="#f4a982"></path><path d="M150.45,93c-.1-.18,0-.39,0-.59s-.27-.38-.55-.5c0,0-.06,0-.08.06a1.56,1.56,0,0,0-.13,1.3,1,1,0,0,0,.22.43.52.52,0,0,0,.45.16.6.6,0,0,0,.4-.43C150.81,93.09,150.58,93.21,150.45,93Z" transform="translate(-5.85 -80.02)" fill="url(#linear-gradient-16)"></path><rect x="121.79" y="75.65" width="4.68" height="212.56" fill="url(#linear-gradient-17)"></rect><polygon points="217.77 307.6 223.02 309.29 223.02 157.96 217.77 157.96 217.77 307.6" fill="url(#linear-gradient-18)"></polygon><polygon points="306.17 331.99 310.74 334.08 310.74 23.99 306.17 23.99 306.17 331.99" fill="url(#linear-gradient-19)"></polygon><polygon points="409.78 328.55 414.36 326.8 414.36 111.41 409.78 111.41 409.78 328.55" fill="url(#linear-gradient-20)"></polygon><path d="M427.71,143.27c-2.29,7.43-1.47,12.24-1.85,15.11-.48,3.57-4.7,8.53-4,12.07s3.06,2.15,5.62,4.68a1.84,1.84,0,0,0,.71.5,2,2,0,0,0,1.69-.55,5.64,5.64,0,0,0,1.91-2c1-2.08.71-1.86-.22-4-2-4.42,1.57-8.16,3-12.78.64-2.11-1.15-16.57-4-16.26C429.56,140.18,428.27,141.44,427.71,143.27Z" transform="translate(-5.85 -80.02)" fill="#68e1fd"></path><path d="M427.85,167.65a7.29,7.29,0,0,1-.05-2.42c.11-.6.32-1.17.45-1.76.47-2,.1-4.1.45-6.12a8.77,8.77,0,0,1,3.44-5.49c.77,2.7,1.53,5.63.57,8.27-.29.77-.71,1.49-1,2.24a9.47,9.47,0,0,0-.77,3.67c0,.88.54,2.31.21,3.14C430.18,171.55,428.09,169.18,427.85,167.65Z" transform="translate(-5.85 -80.02)" fill="url(#linear-gradient-21)"></path><path d="M429.27,212.56a5.62,5.62,0,0,1-.65,3.79c-2.07-1.23-2.7-3.91-3-6.31a52.41,52.41,0,0,1,.39-14.26,6.34,6.34,0,0,1,.66-2.18,5.85,5.85,0,0,1,2.71-2.15,4.54,4.54,0,0,1,2.14-.57,1.81,1.81,0,0,1,1.69,1.24,2.65,2.65,0,0,1-.15,1.36,19.06,19.06,0,0,1-1.62,4.6,12.88,12.88,0,0,0-1.62,3.79A34,34,0,0,0,429.27,212.56Z" transform="translate(-5.85 -80.02)" fill="url(#linear-gradient-22)"></path><path d="M457.59,195.24a9.87,9.87,0,0,1-5.47,1.69c-.71,0-1.43.07-2.14.1a4,4,0,0,0-3.83,3.8c0,1.48-.08,3-.08,4.44,0,3.54.12,7.24-1.44,10.42-.32.67-.85,1.38-1.59,1.39a1.81,1.81,0,0,1-1.07-.44,5.58,5.58,0,0,1-1.87-3.09,14.42,14.42,0,0,1-.31-3.65c0-4.69.41-9.48,2.23-13.8a10.63,10.63,0,0,1,.72-1.43,8.26,8.26,0,0,1,5.07-3.38A20.25,20.25,0,0,1,454,191c1,.06,2,.14,3,.19.56,0,2.62-.28,3,0C460.8,191.84,458.18,194.78,457.59,195.24Z" transform="translate(-5.85 -80.02)" fill="url(#linear-gradient-23)"></path><path d="M416.43,192.88c-.22,4.66,5.74,27.86,7,28.73,1.08.74,3-.25,4.14-.93.22-.15.37-.28.53-.37.86-.65-.53-18.47-.53-18.47s-.43-6.06,3.8-9.58c4.73-3.92,10.13-7.54,9.76-10.32a1.8,1.8,0,0,0-.49-1.11c-2.38-2.84-15.91-.68-18.75,1.42l-.16.09a.1.1,0,0,0,0,.06,3.38,3.38,0,0,1-.31.34c-.21.28-.55.68-.92,1.15a32.42,32.42,0,0,0-2.69,4.35A12.67,12.67,0,0,0,416.43,192.88Z" transform="translate(-5.85 -80.02)" fill="#606161"></path><path d="M417.82,188.24c0,1.21,9.3-.8,10.44,1.21s-1.39,1.2-2.29,5.65,0,22.83,1,24.78a2.34,2.34,0,0,0,.65.8c.22-.15.37-.28.53-.37.86-.65-.53-18.47-.53-18.47s-.43-6.06,3.8-9.58c0,0-.65-4,2.29-6.3a35.52,35.52,0,0,1,7.47-4,36.87,36.87,0,0,0-10.93-1.73,21.94,21.94,0,0,0-8.31,2l-.16.09a.1.1,0,0,0,0,.06,3.38,3.38,0,0,1-.31.34c-.21.28-.55.68-.92,1.15C419.36,185.4,417.82,187.5,417.82,188.24Z" transform="translate(-5.85 -80.02)" fill="url(#linear-gradient-24)"></path><path d="M434.9,219.85a9.56,9.56,0,0,0,2.35,3.7,3.65,3.65,0,0,0,4.11.59c1.45-.9.92-3,.81-4.66a141.33,141.33,0,0,1,.47-20.36c.06-.71,2-2.44,2.46-2.88l0,0A7.83,7.83,0,0,1,447.6,195c1.76-.59,3.95-1,5.59-2.14a5.28,5.28,0,0,0,1.51-1.39c2.91-4,4-12.07,1.58-15.94a4.22,4.22,0,0,0-3.18-2.16c-4.2-.52-11.77,2.23-13.53,6A19.17,19.17,0,0,1,438,183c-1.39,1.95-4.14,2.53-5.5,4.51a8.13,8.13,0,0,0-1.11,3.4A52.93,52.93,0,0,0,434.9,219.85Z" transform="translate(-5.85 -80.02)" fill="#606161"></path><path d="M444.32,194.85a2.06,2.06,0,0,0,.07,1.8c.24-.13.46-.28.71-.41l0,0c.8-.43,1.64-.86,2.47-1.26,1.17-.53,2.41-1,3.64-1.46.65-.21,1.3-.43,1.95-.68a5.28,5.28,0,0,0,1.51-1.39c2.91-4,4-12.07,1.58-15.94a19.41,19.41,0,0,0-6.77,2.26c-1.26.62-2.53,1.2-3.73,1.91-.81.47-2.44,1.15-1.18,2,1.73,1.21,5-.92,6.37,1a3.09,3.09,0,0,1,.37,1.45c.06.75.12,1.52.18,2.29a5.59,5.59,0,0,1-.12,2,4.64,4.64,0,0,1-1.79,2,44.6,44.6,0,0,0-4.14,2.87A4.67,4.67,0,0,0,444.32,194.85Z" transform="translate(-5.85 -80.02)" fill="url(#linear-gradient-25)"></path><path d="M441.55,231a7.92,7.92,0,0,1-1.73,1.3l-2.7,1.68c-1,.6-2.25,1.2-3.17.52s-.75-1.87-.43-2.85A8.85,8.85,0,0,1,436,227.9a2.34,2.34,0,0,0,.58-.68,2,2,0,0,0,.13-.88l0-2.77c0-2.82,3.87-2.31,5.09-.65C443.25,225,443.31,229.14,441.55,231Z" transform="translate(-5.85 -80.02)" fill="#606161"></path><path d="M428,227.56a5.85,5.85,0,0,1-2.8,2.28,19.78,19.78,0,0,1-3.42,1.27,1.59,1.59,0,0,1-1.49-.13,1.42,1.42,0,0,1-.35-.74,5.54,5.54,0,0,1,1.35-5,9.55,9.55,0,0,0,1.5-1.62,7.54,7.54,0,0,0,.51-3.12c.21-2.33,3.91-1.72,4.81-.22S428.81,226.09,428,227.56Z" transform="translate(-5.85 -80.02)" fill="#606161"></path><path d="M457.12,173.24a4.55,4.55,0,0,1-.65,2.7,4.9,4.9,0,0,1-1.84,1.32c-3.43,1.73-6.93,3.47-10.71,4.19s-8,.27-11-2.06a6.64,6.64,0,0,1-2.42-3.17c-.49-1.57-.16-3.25-.07-4.89.21-4.07,5-6,1.1-10.34-2.73-3-2-9.82-.22-13.48,1.42-2.89-4.27-5.47-1.58-7.24,3.78-2.47,8.22-3.68,14.42-2.75,2.4.35,10.58,3.72,11.47,6s-1.7,4.56-1.4,7C455.14,157.94,457.12,165.72,457.12,173.24Z" transform="translate(-5.85 -80.02)" fill="#68e1fd"></path><path d="M452.11,160.06c0-1.14-1-2-1.76-2.84a8.25,8.25,0,0,1-2-5.84c.08-1.21.87-2.69,2.05-2.44a2.27,2.27,0,0,1,.78.38,14.07,14.07,0,0,1,5.55,7.76,7.1,7.1,0,0,1,.24,3.45,8,8,0,0,1-2.54,3.93,21.63,21.63,0,0,1-8,4.79c-.79.26-3.21,1.07-2.67-.47C444.07,167.93,452.14,161.17,452.11,160.06Z" transform="translate(-5.85 -80.02)" fill="url(#linear-gradient-26)"></path><path d="M452.22,173.92a.82.82,0,0,0-.31-.33,1,1,0,0,0-.6-.05,21,21,0,0,1-3.55,0,2.17,2.17,0,0,1-1.07-.29.81.81,0,0,1-.36-1c.15-.35.59-.47,1-.55a16.32,16.32,0,0,0,3.76-1.38,18.4,18.4,0,0,1,3.25-1.58c.91-.27,2.14-.16,2.46.73a2.23,2.23,0,0,1,.09.63l.14,2.7a5.87,5.87,0,0,1-.37,2.95c-.62,1.21-2,1.81-3.25,2.33a1.9,1.9,0,0,1-1.21.18C452.77,176.88,453.15,175.37,452.22,173.92Z" transform="translate(-5.85 -80.02)" fill="url(#linear-gradient-27)"></path><path d="M450,173.29,434.3,174l-.77.25s1.52,5.22,4.29,5S450,173.29,450,173.29Z" transform="translate(-5.85 -80.02)" fill="url(#linear-gradient-28)"></path><path d="M443,176.09l-7.63,0s1.61,2.67,2.95,2.81Z" transform="translate(-5.85 -80.02)" fill="#68e1fd"></path><path d="M443,176.09l-7.63,0s1.61,2.67,2.95,2.81Z" transform="translate(-5.85 -80.02)" fill="url(#linear-gradient-29)"></path><path d="M455.32,143c2.56,2.83,4.26,7.21,6.15,10.53,1.34,2.35,2.53,5,2.12,7.68-.36,2.33-12.18,11-14.38,11.88a3.89,3.89,0,0,1-1.56.38c-1.68-.09-2.39-2.41-1.69-3.95s2.17-2.54,3.35-3.75,4.58-3.12,5.09-4.92a1.74,1.74,0,0,0,.07-1,2.15,2.15,0,0,0-.67-.86c-3.68-3.38-8.78-9.35-7.74-14.45C447.33,138.27,452.43,139.79,455.32,143Z" transform="translate(-5.85 -80.02)" fill="#68e1fd"></path><path d="M432.28,142.19a3.71,3.71,0,0,1-2.35-2.68,16.82,16.82,0,0,1-.13-3.41c-.1-2.58-1.32-4.89-2.39-7.17s-2-4.83-1.55-7.35a8.15,8.15,0,0,1,3.25-4.93,18.32,18.32,0,0,1,5.11-2.39,11.57,11.57,0,0,1,5.47-.89c3.15.51,5.68,3.61,6.48,7.12.65,2.85.33,6,1.41,8.66a23.64,23.64,0,0,0,3.11,4.78,8.59,8.59,0,0,1,1.94,5.38,3.5,3.5,0,0,1-.82,2.18c-1,1-2.52.86-3.73.25a28.83,28.83,0,0,0-3.55-2c-2.29-.74-4.57.43-6.72,1.21C436.3,141.52,433.84,142.67,432.28,142.19Z" transform="translate(-5.85 -80.02)" fill="#ffc709"></path><path d="M446.2,136a19.7,19.7,0,0,1-1.88-3.23c-.53-1.57-.16-3.34-.64-4.93a7.83,7.83,0,0,0-3.47-4,4,4,0,0,0-2.6-.9,4.65,4.65,0,0,0-1.53.6l-6.81,3.74a1.85,1.85,0,0,0-.48.35c-.44.55,0,1.34.37,2,1,1.76,1,3.87,1.23,5.87s.77,4.17,2.4,5.34a3.18,3.18,0,0,0,4.09-.18,11.4,11.4,0,0,1,.76-.93,3.49,3.49,0,0,1,2.9-.41,16.62,16.62,0,0,1,2.7.57c1.37.44,3.59,2.21,5,1.94A23.45,23.45,0,0,0,446.2,136Z" transform="translate(-5.85 -80.02)" fill="#eeb41e"></path><path d="M441,145.21a4.17,4.17,0,0,1-4.5-.4,3.41,3.41,0,0,1-1.1-2c-.34-2.22,1.53-4.28,1.37-6.51-.08-1.11-.66-2.25-.27-3.29s5.3-2.33,5.48-1.4C443.22,138.19,446.4,142.5,441,145.21Z" transform="translate(-5.85 -80.02)" fill="#f6ccbb"></path><path d="M441.25,131.92s.51,9.67-4.7,9c0,0-.82-.11-.58-1.3s1.25-2.42,1.2-3.48S441.25,131.92,441.25,131.92Z" transform="translate(-5.85 -80.02)" fill="url(#linear-gradient-30)"></path><path d="M428.23,125.9c.31,2.78,2.1,5.93,3.21,7.88a10.83,10.83,0,0,0,2.75,3.36,4.35,4.35,0,0,0,4.14.62,5.65,5.65,0,0,0,2.6-3,13.4,13.4,0,0,0,1.29-6.18c-.12-2.23-1.17-6.46-4.32-4.85-.65.34-1.08,1-1.7,1.36a2.88,2.88,0,0,1-2.94.15c-.34-.18-.71-.46-1.08-.34a1.55,1.55,0,0,0-.46.31,2.22,2.22,0,0,1-2.66,0A1.22,1.22,0,0,1,428.23,125.9Z" transform="translate(-5.85 -80.02)" fill="#f6ccbb"></path><path d="M437.44,172.08a4.75,4.75,0,0,0-.53,3.11,1.36,1.36,0,0,0,.15.59,1.1,1.1,0,0,0,.62.43c1.86.64,3.74-1,5.7-1.1.49,0,1,0,1.47,0a4.72,4.72,0,0,0,1.74-.75c.56-.36,1.12-.73,1.66-1.12,1.31-.95.75-2.64-.34-3.55a2.47,2.47,0,0,0-2.86-.29C442.75,170.2,438.93,169.81,437.44,172.08Z" transform="translate(-5.85 -80.02)" fill="#f6ccbb"></path><path d="M425.7,172.41a1.32,1.32,0,0,0-.45.49,1.42,1.42,0,0,0-.05.65,7.54,7.54,0,0,0,1.36,3.53,2.09,2.09,0,0,0,1.28.95c1,.13,1.66-.87,2.55-1.23s2.1-.06,2.94-.62a2.75,2.75,0,0,0,1-2.16c.12-1.61-2.42-2.7-3.79-3C428.9,170.58,427,171.47,425.7,172.41Z" transform="translate(-5.85 -80.02)" fill="#f6ccbb"></path><path d="M429.75,167.5a3.73,3.73,0,0,0-1.64-2,3.88,3.88,0,0,0-1.07-.19,113.24,113.24,0,0,0-24.2.8,1.67,1.67,0,0,0,.49,1.43A147.88,147.88,0,0,0,415.44,182a3.27,3.27,0,0,0,.93.73,3.09,3.09,0,0,0,1.51.12c1.3-.13,2.59-.35,3.88-.54a105.28,105.28,0,0,1,15.36-1.18,12.85,12.85,0,0,0,3.56-.34,11.91,11.91,0,0,0,2.39-1.14,43.75,43.75,0,0,0,7.68-5.13c.18-.17.37-.38.33-.62s-.28-.37-.5-.46c-2.52-1-3.74,1-6.07,2.42-1.43.84-3.83,2.63-5.42,3.1-1.43.42-3.2-2.19-4-3.22A36.65,36.65,0,0,1,429.75,167.5Z" transform="translate(-5.85 -80.02)" fill="#68e1fd"></path><path d="M403.33,167.51c.43.56.86,1.15,1.3,1.7A127,127,0,0,0,415.44,182a3.41,3.41,0,0,0,.93.74,3.49,3.49,0,0,0,1.51.13c1.3-.13,2.59-.37,3.89-.56a99.45,99.45,0,0,1,14.55-1.14,7.31,7.31,0,0,1,.81,0c.49,0,1,0,1.45,0a8.27,8.27,0,0,0,2.1-.31,12.08,12.08,0,0,0,2.41-1.15,55.57,55.57,0,0,0,5.13-3.15,21.74,21.74,0,0,0,2.53-2,.79.79,0,0,0,.34-.62c0-.25-.28-.37-.5-.47-2.53-1-3.27.66-5.59,2.05-1.42.83-4.33,3-5.91,3.48s-3.2-2.19-4-3.21a37,37,0,0,1-5.32-8.28,3.61,3.61,0,0,0-1.64-2,3.27,3.27,0,0,0-1.05-.21,115.42,115.42,0,0,0-24.22.8A1.76,1.76,0,0,0,403.33,167.51Z" transform="translate(-5.85 -80.02)" fill="url(#linear-gradient-31)"></path><path d="M403.33,167.5A163.26,163.26,0,0,0,415.44,182a3.41,3.41,0,0,0,.93.74,3.49,3.49,0,0,0,1.51.13c1.3-.13,2.59-.37,3.89-.56a99.45,99.45,0,0,1,14.55-1.14,11.31,11.31,0,0,1-1.79-2,37.92,37.92,0,0,1-5.28-8.28c-.37-.8-2.1-3.41-2.93-3.75a4.84,4.84,0,0,0-1.05-.19A110.92,110.92,0,0,0,403.33,167.5Z" transform="translate(-5.85 -80.02)" fill="url(#linear-gradient-32)"></path><path d="M442.16,126.77a1,1,0,0,1,.41-.08.71.71,0,0,1,.52.4,1.7,1.7,0,0,1,.13.67,4.28,4.28,0,0,1-.1,1,1.72,1.72,0,0,1-1.12,1.38,1.12,1.12,0,0,1-1.26-.78A2.56,2.56,0,0,1,442.16,126.77Z" transform="translate(-5.85 -80.02)" fill="#f6ccbb"></path><path d="M441.87,128.5c.1-.17,0-.39,0-.59s.26-.37.54-.5c0,0,.07,0,.09.07a1.57,1.57,0,0,1,.13,1.29.94.94,0,0,1-.23.43.47.47,0,0,1-.44.16.59.59,0,0,1-.41-.43C441.5,128.61,441.74,128.74,441.87,128.5Z" transform="translate(-5.85 -80.02)" fill="url(#linear-gradient-33)"></path><path d="M437.32,124.54a8.22,8.22,0,0,1,.13,1,2,2,0,0,1-1.3,1.62,6.82,6.82,0,0,1-2.16.33,4.35,4.35,0,0,0-2.11.53c-.27.17-.5.38-.75.57a3,3,0,0,1-4.09-.74,3.65,3.65,0,0,1-.47-1.44A4,4,0,0,1,428,122.5c1.11-.76,2.57-.68,3.92-.67a23.91,23.91,0,0,0,3.58-.23c.62-.08,2.71-.51,2.83.45.06.43-.47.79-.67,1.11A2.24,2.24,0,0,0,437.32,124.54Z" transform="translate(-5.85 -80.02)" fill="#ffc709"></path></svg>