<svg id="Layer_1" data-name="Layer 1" xmlns="http://www.w3.org/2000/svg" xmlns:xlink="http://www.w3.org/1999/xlink" viewBox="0 0 504.84 405.87" width="406" height="306" class="illustration styles_illustrationTablet__1DWOa"><defs><linearGradient id="linear-gradient" x1="328.39" y1="247.21" x2="349.84" y2="252.2" gradientUnits="userSpaceOnUse"><stop offset="0" stop-color="#010101" stop-opacity="0"></stop><stop offset="0.95" stop-color="#010101"></stop></linearGradient><linearGradient id="linear-gradient-2" x1="410.21" y1="298.61" x2="371.87" y2="381.47" xlink:href="#linear-gradient"></linearGradient><linearGradient id="linear-gradient-3" x1="434.8" y1="330.87" x2="373.58" y2="440.78" xlink:href="#linear-gradient"></linearGradient><linearGradient id="linear-gradient-4" x1="284.31" y1="329.53" x2="544.33" y2="316.55" xlink:href="#linear-gradient"></linearGradient><linearGradient id="linear-gradient-5" x1="236.35" y1="283.5" x2="240.68" y2="403.46" xlink:href="#linear-gradient"></linearGradient><linearGradient id="linear-gradient-6" x1="248.58" y1="285.1" x2="252.91" y2="405.06" xlink:href="#linear-gradient"></linearGradient><linearGradient id="linear-gradient-7" x1="91.84" y1="312.88" x2="140.53" y2="468.24" xlink:href="#linear-gradient"></linearGradient><linearGradient id="linear-gradient-8" x1="77.24" y1="315.03" x2="214.05" y2="481.06" xlink:href="#linear-gradient"></linearGradient><linearGradient id="linear-gradient-9" x1="25" y1="344.35" x2="199.99" y2="439.58" xlink:href="#linear-gradient"></linearGradient><linearGradient id="linear-gradient-10" x1="10.81" y1="348.77" x2="228.78" y2="426.68" xlink:href="#linear-gradient"></linearGradient><linearGradient id="linear-gradient-11" x1="361.99" y1="341.08" x2="479.33" y2="411.57" xlink:href="#linear-gradient"></linearGradient><linearGradient id="linear-gradient-12" x1="414.95" y1="359.18" x2="414.02" y2="451.93" xlink:href="#linear-gradient"></linearGradient><linearGradient id="linear-gradient-13" x1="448.18" y1="427.03" x2="535.72" y2="479.62" gradientTransform="matrix(0.85, 0.53, -0.53, 0.85, 247.09, -239.11)" xlink:href="#linear-gradient"></linearGradient><linearGradient id="linear-gradient-14" x1="60.62" y1="385.72" x2="244.78" y2="433.67" xlink:href="#linear-gradient"></linearGradient><linearGradient id="linear-gradient-15" x1="192.72" y1="335.77" x2="192.72" y2="263.42" gradientUnits="userSpaceOnUse"><stop offset="0" stop-color="#fff" stop-opacity="0"></stop><stop offset="0.23" stop-color="#fff" stop-opacity="0.23"></stop><stop offset="0.95" stop-color="#fff"></stop></linearGradient><linearGradient id="linear-gradient-16" x1="118.33" y1="365.95" x2="120.8" y2="288.65" xlink:href="#linear-gradient-15"></linearGradient><linearGradient id="linear-gradient-17" x1="258.78" y1="280.98" x2="270.22" y2="209.56" xlink:href="#linear-gradient"></linearGradient><linearGradient id="linear-gradient-18" x1="162.23" y1="314.9" x2="173.67" y2="243.47" xlink:href="#linear-gradient"></linearGradient><linearGradient id="linear-gradient-19" x1="345.04" y1="331.07" x2="356.48" y2="259.65" xlink:href="#linear-gradient"></linearGradient><linearGradient id="linear-gradient-20" x1="228.24" y1="71.22" x2="248.03" y2="70.91" gradientUnits="userSpaceOnUse"><stop offset="0" stop-color="#fff" stop-opacity="0"></stop><stop offset="0.66" stop-color="#fff" stop-opacity="0.23"></stop><stop offset="0.95" stop-color="#fff"></stop></linearGradient><linearGradient id="linear-gradient-21" x1="277.4" y1="69.07" x2="359.8" y2="119.62" xlink:href="#linear-gradient-15"></linearGradient><linearGradient id="linear-gradient-22" x1="274.29" y1="72.31" x2="289.7" y2="72.31" xlink:href="#linear-gradient-15"></linearGradient><linearGradient id="linear-gradient-23" x1="240.39" y1="129.6" x2="247.32" y2="129.6" gradientUnits="userSpaceOnUse"><stop offset="0" stop-color="#e5c6d6"></stop><stop offset="0.42" stop-color="#ead4d0"></stop><stop offset="1" stop-color="#f0e9cb"></stop></linearGradient><linearGradient id="linear-gradient-24" x1="274.39" y1="133.94" x2="281.63" y2="133.94" xlink:href="#linear-gradient-23"></linearGradient><linearGradient id="linear-gradient-25" x1="255.63" y1="96.85" x2="262.28" y2="113.85" xlink:href="#linear-gradient"></linearGradient><linearGradient id="linear-gradient-26" x1="239.12" y1="52.89" x2="275.81" y2="52.89" xlink:href="#linear-gradient-15"></linearGradient><linearGradient id="linear-gradient-27" x1="257.33" y1="71.69" x2="257.69" y2="82.54" xlink:href="#linear-gradient"></linearGradient><linearGradient id="linear-gradient-28" x1="256.99" y1="82.37" x2="257.22" y2="91.65" xlink:href="#linear-gradient"></linearGradient><linearGradient id="linear-gradient-29" x1="252.62" y1="163.76" x2="270.83" y2="163.76" xlink:href="#linear-gradient-23"></linearGradient><linearGradient id="linear-gradient-30" x1="261.17" y1="155.4" x2="248.65" y2="162.36" xlink:href="#linear-gradient"></linearGradient><linearGradient id="linear-gradient-31" x1="230.92" y1="74.67" x2="296.16" y2="71.58" xlink:href="#linear-gradient"></linearGradient><linearGradient id="linear-gradient-32" x1="257.54" y1="81" x2="257.23" y2="132.33" xlink:href="#linear-gradient-15"></linearGradient><linearGradient id="linear-gradient-33" x1="251.21" y1="149.44" x2="252.46" y2="149.44" xlink:href="#linear-gradient"></linearGradient><linearGradient id="linear-gradient-34" x1="173.62" y1="247.51" x2="203.22" y2="252.02" xlink:href="#linear-gradient"></linearGradient><linearGradient id="linear-gradient-35" x1="135.98" y1="210.4" x2="270.44" y2="243.78" xlink:href="#linear-gradient"></linearGradient><linearGradient id="linear-gradient-36" x1="122.39" y1="170.91" x2="130.89" y2="170.91" xlink:href="#linear-gradient-23"></linearGradient><linearGradient id="linear-gradient-37" x1="158.89" y1="194.05" x2="176.53" y2="194.05" xlink:href="#linear-gradient-23"></linearGradient><linearGradient id="linear-gradient-38" x1="337.33" y1="263.88" x2="395.45" y2="137.42" xlink:href="#linear-gradient"></linearGradient><linearGradient id="linear-gradient-39" x1="333.7" y1="201.3" x2="340.05" y2="201.3" gradientTransform="translate(-37.19 93.06) rotate(-9.89)" xlink:href="#linear-gradient-23"></linearGradient><linearGradient id="linear-gradient-40" x1="329.13" y1="234.12" x2="338.18" y2="234.12" xlink:href="#linear-gradient-23"></linearGradient><linearGradient id="linear-gradient-41" x1="337.94" y1="212.97" x2="353.06" y2="212.97" xlink:href="#linear-gradient-23"></linearGradient><linearGradient id="linear-gradient-42" x1="166.47" y1="228.48" x2="181.47" y2="228.48" xlink:href="#linear-gradient-23"></linearGradient><linearGradient id="linear-gradient-43" x1="168.43" y1="202.48" x2="170.75" y2="202.48" xlink:href="#linear-gradient"></linearGradient><linearGradient id="linear-gradient-44" x1="152.85" y1="179.62" x2="154.91" y2="182.64" xlink:href="#linear-gradient"></linearGradient><linearGradient id="linear-gradient-45" x1="171.14" y1="195.03" x2="195.41" y2="221.31" xlink:href="#linear-gradient"></linearGradient></defs><title>winner 2</title><path d="M461.39,378.13c25.28-15.29,42.82-41.47,47.1-69.63s-4.66-57.82-23.64-79.84c-20.87-24.22-52.18-38.59-73.7-62.3-31.86-35.09-39.1-87-74.87-118.5C312,26.45,276.45,17.75,243.83,23.49S182,48.71,163.44,74.82c-26.31,37.09-31.59,85.67-61.61,120.13-13.89,15.94-32.21,27.77-48,42C18,269.1-5,318.34,8.7,363.28c3.19,10.48,8.4,20.64,16.61,28.29,15.3,14.25,38.19,17.71,59.53,19.67,73.39,6.73,147.33,4.23,221,1.72,16.24-.55,31.1-2.13,46.11-8.37,12.58-5.22,23.68-12.55,37.78-13.11C416.35,390.42,437.1,392.82,461.39,378.13Z" transform="translate(-4.7 -21.76)" fill="#68e1fd" opacity="0.24" style="isolation: isolate;"></path><path d="M325.29,248.63a11.47,11.47,0,0,0,.88,6.84,3.1,3.1,0,0,0,2.45,1.82,4,4,0,0,0,2.38-1.18,3.45,3.45,0,0,0,1.59-3.89c-.43-4-.83-8.14.35-12a2.37,2.37,0,0,0,.14-1.43c-.67-1.86-4.59-.25-5.42.75C326,241.6,325.57,246.09,325.29,248.63Z" transform="translate(-4.7 -21.76)" fill="#68e1fd"></path><path d="M325.29,248.63a11.47,11.47,0,0,0,.88,6.84,3.1,3.1,0,0,0,2.45,1.82,4,4,0,0,0,2.38-1.18,3.45,3.45,0,0,0,1.59-3.89c-.43-4-.83-8.14.35-12a2.37,2.37,0,0,0,.14-1.43c-.67-1.86-4.59-.25-5.42.75C326,241.6,325.57,246.09,325.29,248.63Z" transform="translate(-4.7 -21.76)" fill="url(#linear-gradient)"></path><path d="M355.55,363.73c13.92-16.33,14.14-39.88,14.4-61.34.11-8.46,1.57-18.81,9.46-21.88,4.77-1.85,10.48,0,13.94,3.8s4.88,9.09,4.79,14.21c-.08,4.11-1,8.19-.8,12.3.85,14.47,15.65,23.94,21.15,37.35,3.87,9.45,2.72,20.59-2.14,29.58s-13.17,15.85-22.53,19.94c-7.62,3.33-16.47,4.89-24.28,2s-13.94-11.14-12.43-19.32" transform="translate(-4.7 -21.76)" fill="#68e1fd"></path><path d="M355.55,363.73c13.92-16.33,14.14-39.88,14.4-61.34.11-8.46,1.57-18.81,9.46-21.88,4.77-1.85,10.48,0,13.94,3.8s4.88,9.09,4.79,14.21c-.08,4.11-1,8.19-.8,12.3.85,14.47,15.65,23.94,21.15,37.35,3.87,9.45,2.72,20.59-2.14,29.58s-13.17,15.85-22.53,19.94c-7.62,3.33-16.47,4.89-24.28,2s-13.94-11.14-12.43-19.32" transform="translate(-4.7 -21.76)" fill="url(#linear-gradient-2)"></path><path d="M415.07,314.32c.42-3.86.47-7.89,2.21-11.35a12.6,12.6,0,0,1,22.23-.56c4.45,7.86-.41,17.42-3.31,26a58.43,58.43,0,0,0-.89,34.41c1.94,6.86,5.16,14,2.93,20.81-2.33,7.07-10.53,11.19-17.91,10.14s-13.64-6.41-17.24-12.93c-5.38-9.77-7.39-20.74-2-30.36C407.43,339,413.62,327.55,415.07,314.32Z" transform="translate(-4.7 -21.76)" fill="#68e1fd"></path><path d="M415.07,314.32c.42-3.86.47-7.89,2.21-11.35a12.6,12.6,0,0,1,22.23-.56c4.45,7.86-.41,17.42-3.31,26a58.43,58.43,0,0,0-.89,34.41c1.94,6.86,5.16,14,2.93,20.81-2.33,7.07-10.53,11.19-17.91,10.14s-13.64-6.41-17.24-12.93c-5.38-9.77-7.39-20.74-2-30.36C407.43,339,413.62,327.55,415.07,314.32Z" transform="translate(-4.7 -21.76)" fill="url(#linear-gradient-3)"></path><g opacity="0.24" style="isolation: isolate;"><path d="M339.53,116a17.19,17.19,0,0,1-3,6.2,12,12,0,0,0,1.8,1.84.92.92,0,0,0,.5.25,1,1,0,0,0,.64-.28l6.83-5.29a.81.81,0,0,0,.34-.39c.14-.38-.25-.74-.6-1a10.14,10.14,0,0,0-3.89-1.76,3.45,3.45,0,0,0-3.65,1.68" transform="translate(-4.7 -21.76)" fill="#68e1fd"></path><path d="M348.07,138.1a25.16,25.16,0,0,0-7.51-3.47,4.54,4.54,0,0,0-3.55.08c-1.56.94-1.57,3.36-.5,4.84s2.86,2.22,4.54,2.91a2.63,2.63,0,0,0,3.92-.82l3.19-4.07" transform="translate(-4.7 -21.76)" fill="#68e1fd"></path><path d="M348,127.22a.54.54,0,0,0-.32.2.56.56,0,0,0,0,.36l.43,1.68a.37.37,0,0,0,.12.22.34.34,0,0,0,.2,0l4.83-.18c.25,0,.42-2,.38-2.23-.14-.82-.08-.78-.88-.9A12.06,12.06,0,0,0,348,127.22Z" transform="translate(-4.7 -21.76)" fill="#68e1fd"></path><path d="M331.34,114.48a10.47,10.47,0,0,0-3,1,1.36,1.36,0,0,0-.66.54,1,1,0,0,0,.47,1.19,2,2,0,0,0,1.39.06,2.44,2.44,0,0,0,1.58-1.12,1.33,1.33,0,0,0-.44-1.74" transform="translate(-4.7 -21.76)" fill="#68e1fd"></path><path d="M338.05,110.5a4.93,4.93,0,0,0-3.11-1.52.79.79,0,0,0-.43,0,.63.63,0,0,0-.22.82,1.74,1.74,0,0,0,.67.65,2.57,2.57,0,0,0,1.61.55c.58-.08,1.08-.75.79-1.25" transform="translate(-4.7 -21.76)" fill="#68e1fd"></path><path d="M349.07,110.18l-3.67,0c-.45,0-1,.08-1.15.5s.28.86.73.92a3.69,3.69,0,0,0,1.31-.19,4.07,4.07,0,0,1,2.16.14,1.25,1.25,0,0,0,.86.12c.53-.22.37-1,.12-1.53" transform="translate(-4.7 -21.76)" fill="#68e1fd"></path><path d="M353.4,153.92l-1.95,1.42a4.71,4.71,0,0,0-1.65,1.7,1.63,1.63,0,0,0,.52,2.11c.93.48,2-.41,2.46-1.35s.77-2.05,1.66-2.59c.35-.21.78-.32,1-.66a1.08,1.08,0,0,0-.5-1.41,3.05,3.05,0,0,0-1.62-.25" transform="translate(-4.7 -21.76)" fill="#68e1fd"></path><path d="M319.24,151.81c-.62-.36-1.46-.71-2-.21s.07,1.7.91,1.92,1.73,0,2.58.12a3.23,3.23,0,0,0-.45-2.6" transform="translate(-4.7 -21.76)" fill="#68e1fd"></path><path d="M241.58,130.54a57.38,57.38,0,0,1-4.52-9.54l-3.61,4a1.78,1.78,0,0,0-.58,1.09,1.82,1.82,0,0,0,.51,1.08l3.13,3.88c.84,1.05,1.81,2.17,3.14,2.35s2.81-1.29,2.09-2.43" transform="translate(-4.7 -21.76)" fill="#68e1fd"></path><path d="M244.11,93.84l-6.24,5.4c.16,1.64,2.58,1.62,4.1,1a6.08,6.08,0,0,0,3.25-2.41c.64-1.22.17-3.08-1.18-3.37" transform="translate(-4.7 -21.76)" fill="#68e1fd"></path><path d="M210.82,107.91c.32,1.54-.17,3.16.08,4.72s1.86,3.15,3.25,2.4a2.93,2.93,0,0,0,1.23-2.33,12.59,12.59,0,0,0-.82-6.45" transform="translate(-4.7 -21.76)" fill="#68e1fd"></path><path d="M173.58,168.34A32.64,32.64,0,0,1,164,176c-.71.37-1.51.83-1.63,1.62a2.53,2.53,0,0,0,.82,1.87l2.94,3.5a1.56,1.56,0,0,0,2.56.27q3.09-2.12,6.08-4.38a7.78,7.78,0,0,0,2.33-2.38c1-1.83.37-4.19-.93-5.82a16.18,16.18,0,0,0-5-3.68" transform="translate(-4.7 -21.76)" fill="#68e1fd"></path><path d="M185.9,183.81a7.22,7.22,0,0,1-.25,4,5.56,5.56,0,0,0,.07,4c.65,1.2,2.6,1.68,3.35.54.65-2.46,1.3-5.16.26-7.49s-4.54-3.61-6.18-1.65" transform="translate(-4.7 -21.76)" fill="#68e1fd"></path><path d="M372.71,203.05c-.48,2.42.1,5.83,2.56,6,2.64.15,3.27-4.22,1.18-5.85s-5.05-1.21-7.65-.73" transform="translate(-4.7 -21.76)" fill="#68e1fd"></path><path d="M387.09,187.49a20.38,20.38,0,0,0-9.38,1.15c-.09,3.82,4.83,6.7,8.12,4.76l.23-6" transform="translate(-4.7 -21.76)" fill="#68e1fd"></path><path d="M162.42,297.74a24.82,24.82,0,0,0-18.58-8.38,12.83,12.83,0,0,0-.9,8.17,35.82,35.82,0,0,1,12.79,6l4.82-7.86" transform="translate(-4.7 -21.76)" fill="#68e1fd"></path><path d="M194.81,276.53a36.25,36.25,0,0,0-12.42-.47,4.79,4.79,0,0,0,1,5.23,6.82,6.82,0,0,0,8.39-2.41,7.6,7.6,0,0,0-.69-8.87" transform="translate(-4.7 -21.76)" fill="#68e1fd"></path><path d="M152.24,216.45A97.52,97.52,0,0,0,135.74,200a28.29,28.29,0,0,0-1.13,13.17q7.89,4,15.85,7.91" transform="translate(-4.7 -21.76)" fill="#68e1fd"></path><path d="M372.25,141.4a5.94,5.94,0,0,0-1-2.12,2,2,0,0,0-2.08-.75,2,2,0,0,0-1.19,1.95,6,6,0,0,0,.67,2.32,2.25,2.25,0,0,0-2.46,1.6,2.16,2.16,0,0,0,1.44,2.53,2.09,2.09,0,0,0,2.5-1.46,1.43,1.43,0,0,0,1.57,1.86,1.65,1.65,0,0,0,.89-2.42,1.41,1.41,0,1,0,1.23-2,1.54,1.54,0,1,0-1.58-1.69" transform="translate(-4.7 -21.76)" fill="#68e1fd"></path><path d="M158.53,202.11c-1.36-.46-3.13-.8-4,.33a2.61,2.61,0,0,0-.38,2,3.61,3.61,0,0,0,2,2.87,2.36,2.36,0,0,0,3.07-1.17,7.54,7.54,0,0,0,.76,3,2.52,2.52,0,0,0,2.64,1.3,2.73,2.73,0,0,0,1.42-1.09c.93-1.29,1-3.48-.45-4.12a6.57,6.57,0,0,0,3.42.3,2.23,2.23,0,0,0-.34-4.45,7.37,7.37,0,0,0-3.19.58,6,6,0,0,0-.35-4.66,1.79,1.79,0,0,0-.63-.73c-.65-.36-1.45.11-2,.65a6.31,6.31,0,0,0-1.67,5.07" transform="translate(-4.7 -21.76)" fill="#68e1fd"></path><path d="M149,152.8a7.47,7.47,0,0,0-.51-3.52,2.58,2.58,0,0,0-2.95-1.46,3.74,3.74,0,0,0-1.76,1.91,5.94,5.94,0,0,0-1,3.14c.08,1.12,1,2.24,2.14,2.07a9.68,9.68,0,0,0-3.09,6.16,1.66,1.66,0,0,0,.34,1.41,1.53,1.53,0,0,0,1.34.2,5.11,5.11,0,0,0,3.89-5.3c.39,1.29,1.19,2.88,2.53,2.72a2.26,2.26,0,0,0,1.61-1.41,4.78,4.78,0,0,0-2.13-6.08" transform="translate(-4.7 -21.76)" fill="#68e1fd"></path></g><path d="M176.39,175.73a1.46,1.46,0,0,1,.33.75c.55,2.8-.58,5.63-1.68,8.27a3.6,3.6,0,0,0-.86-2.9,7.43,7.43,0,0,0-2.5-1.82,1.58,1.58,0,0,1-.5-.34A1.15,1.15,0,0,1,171,179a3.46,3.46,0,0,1,1.78-3.17C173.61,175.35,175.59,174.92,176.39,175.73Z" transform="translate(-4.7 -21.76)" fill="#606161"></path><path d="M293.36,279A174.4,174.4,0,0,1,313,269.68l-3.09,30.52C308.48,314,307,328,301.3,340.64s-16.52,23.75-30.16,26.13c-27.56,4.82-21.56-24.36-16.4-39.73A88.47,88.47,0,0,1,293.36,279Z" transform="translate(-4.7 -21.76)" fill="#68e1fd"></path><path d="M203.21,282.47a173.16,173.16,0,0,1,1.22-21.7l25.28,17.38c11.41,7.85,23,15.89,31.34,27s12.89,25.89,8.43,39c-9,26.48-31.73,7.21-42.73-4.7A88.54,88.54,0,0,1,203.21,282.47Z" transform="translate(-4.7 -21.76)" fill="#68e1fd"></path><path d="M286.25,290.17a174.4,174.4,0,0,1,19.61-9.36l-3.09,30.52c-1.4,13.78-2.87,27.83-8.58,40.44S277.67,375.52,264,377.91c-27.56,4.81-21.56-24.36-16.41-39.74A88.54,88.54,0,0,1,286.25,290.17Z" transform="translate(-4.7 -21.76)" fill="url(#linear-gradient-4)"></path><path d="M203.21,282.47a173.16,173.16,0,0,1,1.22-21.7l25.28,17.38c11.41,7.85,23,15.89,31.34,27s12.89,25.89,8.43,39c-9,26.48-31.73,7.21-42.73-4.7A88.54,88.54,0,0,1,203.21,282.47Z" transform="translate(-4.7 -21.76)" fill="url(#linear-gradient-5)"></path><path d="M216.2,304.88a173,173,0,0,1,1.21-21.69l25.28,17.38c11.41,7.84,23,15.88,31.35,26.95s12.89,25.9,8.43,39c-9,26.49-31.73,7.21-42.74-4.7A88.43,88.43,0,0,1,216.2,304.88Z" transform="translate(-4.7 -21.76)" fill="url(#linear-gradient-6)"></path><path d="M83.71,308.94c5.3-14.3,13.45-27.35,19.89-41.17a158.13,158.13,0,0,1,21.05,108.58c-.9,5.25-2.09,10.53-4.64,15.19-3.74,6.85-15.65,17.33-24.48,14.86-7.87-2.21-12.41-20.79-14.49-28.34A113.6,113.6,0,0,1,83.71,308.94Z" transform="translate(-4.7 -21.76)" fill="#68e1fd"></path><path d="M84.17,309.4c5.3-14.3,13.46-27.34,19.9-41.17a158.17,158.17,0,0,1,21.05,108.59c-.9,5.24-2.1,10.52-4.65,15.19-3.74,6.84-15.65,17.33-24.47,14.85-7.88-2.21-12.42-20.78-14.5-28.34A113.6,113.6,0,0,1,84.17,309.4Z" transform="translate(-4.7 -21.76)" fill="url(#linear-gradient-7)"></path><path d="M93.89,330.05c2.74-7.42,7-14.18,10.31-21.36A82,82,0,0,1,115.12,365a24.78,24.78,0,0,1-2.41,7.88c-1.94,3.55-8.11,9-12.69,7.7-4.09-1.14-6.44-10.78-7.52-14.69A58.9,58.9,0,0,1,93.89,330.05Z" transform="translate(-4.7 -21.76)" fill="url(#linear-gradient-8)"></path><path d="M33.62,390.52c1-11.9,4-24,1-35.6C30.77,339.59,17,327.21,16.88,311.39c0-7.86,3.44-15.32,7.68-21.94a15.27,15.27,0,0,1,3.91-4.5c3.25-2.23,7.83-1.76,11.14.37s5.49,5.66,6.94,9.33c5,12.79,2.06,27.79,7.7,40.34,5.89,13.1,19.93,20.83,26.89,33.4a36.74,36.74,0,0,1-1.8,37.77c-6.6,9.61-21,17.8-33.11,15.94C33.51,420.14,32.76,400.84,33.62,390.52Z" transform="translate(-4.7 -21.76)" fill="#68e1fd"></path><path d="M33.62,390.52c1-11.9,4-24,1-35.6C30.77,339.59,17,327.21,16.88,311.39c0-7.86,3.44-15.32,7.68-21.94a15.27,15.27,0,0,1,3.91-4.5c3.25-2.23,7.83-1.76,11.14.37s5.49,5.66,6.94,9.33c5,12.79,2.06,27.79,7.7,40.34,5.89,13.1,19.93,20.83,26.89,33.4a36.74,36.74,0,0,1-1.8,37.77c-6.6,9.61-21,17.8-33.11,15.94C33.51,420.14,32.76,400.84,33.62,390.52Z" transform="translate(-4.7 -21.76)" fill="url(#linear-gradient-9)"></path><path d="M46.86,367.3c-4.19-17.38-17.31-33.23-14.75-50.92.38-2.68,1.64-5.79,4.31-6.22,3.55-.58,5.6,3.81,6.48,7.3,1.51,6,3.24,12,6.28,17.31,5.52,9.73,14.93,16.66,21.19,25.92,8.43,12.47,11.22,30.64,4.63,44.55-2.65,5.59-8,11.07-14.77,9.4-7-1.75-8.73-9.68-9.81-15.82C48.59,388.39,49.36,377.64,46.86,367.3Z" transform="translate(-4.7 -21.76)" fill="url(#linear-gradient-10)"></path><path d="M388,298.21a174.4,174.4,0,0,1,19.61-9.36l-3.09,30.52c-1.4,13.78-2.87,27.83-8.58,40.44s-16.52,23.75-30.16,26.13c-27.56,4.82-21.56-24.36-16.41-39.73A88.54,88.54,0,0,1,388,298.21Z" transform="translate(-4.7 -21.76)" fill="#68e1fd"></path><path d="M381.61,314a155.9,155.9,0,0,1,17.55-8.37l-2.77,27.32c-1.25,12.33-2.57,24.91-7.68,36.2s-14.79,21.26-27,23.39c-24.67,4.31-19.31-21.8-14.69-35.57A79.23,79.23,0,0,1,381.61,314Z" transform="translate(-4.7 -21.76)" fill="url(#linear-gradient-11)"></path><path d="M376.64,384.29c4.55-13.16,10.73-27.3,23.3-33.3,5.38-2.56,11.41-3.34,17.34-3.85a229.38,229.38,0,0,1,40.26.12c-6.27,9.24-12.68,18.63-21.41,25.59-6.41,5.11-13.88,8.75-20.36,13.77-6.21,4.81-11.57,10.92-18.7,14.22-4.37,2-18.26,5.94-22.65,2.77C368.85,399.58,374.69,389.94,376.64,384.29Z" transform="translate(-4.7 -21.76)" fill="#68e1fd"></path><path d="M376.64,384.29c4.55-13.16,10.73-27.3,23.3-33.3,5.38-2.56,11.41-3.34,17.34-3.85a229.38,229.38,0,0,1,40.26.12c-6.27,9.24-12.68,18.63-21.41,25.59-6.41,5.11-13.88,8.75-20.36,13.77-6.21,4.81-11.57,10.92-18.7,14.22-4.37,2-18.26,5.94-22.65,2.77C368.85,399.58,374.69,389.94,376.64,384.29Z" transform="translate(-4.7 -21.76)" fill="url(#linear-gradient-12)"></path><path d="M425.32,350.73a116.5,116.5,0,0,1,14.42,1.61l-12.52,16.22c-5.65,7.32-11.44,14.77-19.12,19.91s-17.75,7.64-26.32,4.19c-17.33-7-3.64-21.43,4.71-28.33A59.09,59.09,0,0,1,425.32,350.73Z" transform="translate(-4.7 -21.76)" fill="url(#linear-gradient-13)"></path><path d="M47.62,348.92q2.64,12.49,6,24.83c2.7,10,5.85,20.14,12,28.51,10.63,14.6,28.94,21.87,46.88,23.87q-1.41-19-1.65-38c-.12-8.74.32-14.55-6.22-20.74-7.19-6.82-16.8-11.85-26.12-15C76,351.61,47.23,347.08,47.62,348.92Z" transform="translate(-4.7 -21.76)" fill="#68e1fd"></path><path d="M67.56,365.29q2.19,10.38,5,20.61c2.25,8.31,4.86,16.71,9.93,23.67,8.82,12.11,22.63,14.33,37.52,16-.78-10.48.16-17.17,0-27.68-.1-7.26.27-12.09-5.16-17.22-6-5.66-13.94-9.84-21.69-12.44C91.1,367.53,67.24,363.77,67.56,365.29Z" transform="translate(-4.7 -21.76)" fill="url(#linear-gradient-14)"></path><path d="M121.1,343c2.6-3.76,5.78-7.15,7.79-11.24,4.34-8.84,2.65-19.66,6.74-28.61.82-1.82,2-3.65,3.89-4.34,2.91-1.07,6.08,1.07,7.78,3.65,5.81,8.8.95,20.45,1.32,31,.2,5.79,2,11.39,3,17.09.49,2.79.76,5.73-.2,8.4a18.25,18.25,0,0,1-3.41,5.31c-7.78,9.4-18.67,15.63-29.63,6.58C109.58,363.49,115.55,351,121.1,343Z" transform="translate(-4.7 -21.76)" fill="#68e1fd"></path><rect x="103.78" y="315.88" width="129.46" height="84.37" fill="#fff"></rect><rect x="253.4" y="331.62" width="129.46" height="68.63" fill="#fff"></rect><rect x="177.6" y="280.87" width="129.46" height="120.16" fill="#fff"></rect><rect x="177.88" y="280.74" width="29.68" height="33.86" fill="#68e1fd"></rect><rect x="177.88" y="280.74" width="29.68" height="33.86" fill="url(#linear-gradient-15)"></rect><rect x="103.86" y="315.88" width="29.26" height="89.98" fill="#68e1fd"></rect><rect x="103.67" y="315.75" width="29.68" height="88.81" fill="url(#linear-gradient-16)"></rect><path d="M252,316.37a26.48,26.48,0,0,0,4.74.27h5a38.77,38.77,0,0,0,4.9-.16,60.75,60.75,0,0,0-.28,6.36v20.71a45,45,0,0,0,.32,6h-8.61a46.52,46.52,0,0,0,.31-6V323.4h-1.58a43.5,43.5,0,0,0-4.82.27Z" transform="translate(-4.7 -21.76)" fill="#68e1fd"></path><path d="M174.73,384.72c-3.55,0-4.46,0-5.93.16a20.1,20.1,0,0,1,.83-4.67,20.33,20.33,0,0,1,5.7-8.85,55.2,55.2,0,0,1,7-5.25c3.4-2.29,4.23-3.32,4.23-5.14s-1.7-3.16-4.23-3.16a4.47,4.47,0,0,0-4.11,2,7.06,7.06,0,0,0-1,3.32l-8.3-.87c.6-3.44,1.31-5.18,2.89-7,2.25-2.64,5.85-4.07,10.47-4.07,5.33,0,9.4,1.78,11.37,5a8.45,8.45,0,0,1,1.31,4.62,9.17,9.17,0,0,1-3.63,7.35,53.72,53.72,0,0,1-5.73,4.23c-3.44,2.37-4.9,3.75-5.81,5.49H189a51.71,51.71,0,0,0,6.32-.27V385c-2.29-.19-3.95-.27-6.75-.27Z" transform="translate(-4.7 -21.76)" fill="#68e1fd"></path><path d="M345.84,392.24a4.17,4.17,0,0,0,1.1,2.53,6.18,6.18,0,0,0,4.55,1.69c3.08,0,5-1.54,5-3.95a3.41,3.41,0,0,0-2.13-3.39,11.23,11.23,0,0,0-3.67-.52c-1.54,0-3.32.08-4.86.24v-6.79a36.33,36.33,0,0,0,4.18.23c3.76,0,5.61-1.26,5.61-3.79,0-2.14-1.49-3.36-4.1-3.36-2.81,0-4.23,1.11-4.82,3.63l-8.54-1.22a11.44,11.44,0,0,1,2.65-5c2.41-2.61,6.05-3.95,10.86-3.95,4.31,0,7.87,1.19,10.12,3.36a7.66,7.66,0,0,1,2.21,5.61c0,4.19-2.25,6.8-6.8,7.86a8.87,8.87,0,0,1,5.1,2.1,7.77,7.77,0,0,1,2.61,5.84,8.79,8.79,0,0,1-1.58,5.26,9.93,9.93,0,0,1-3.71,3,21.33,21.33,0,0,1-8.22,1.54c-3.56,0-7.11-.83-9.21-2.21a10.77,10.77,0,0,1-4.07-5.09,16.61,16.61,0,0,1-.67-2.1Z" transform="translate(-4.7 -21.76)" fill="#68e1fd"></path><path d="M245.34,223.78l2.4,73.5s-6.65,3.4-6.49,5,14,.27,14,.27l4.9-66.78h2.32l4.72,66.51s8.19,1.86,10.2,1.24-3.55-5.88-3.55-5.88l3.32-72.66Z" transform="translate(-4.7 -21.76)" fill="#606161"></path><path d="M245.34,223.78l2.4,73.5s-6.65,3.4-6.49,5,14,.27,14,.27l4.9-66.78h2.32l4.72,66.51s8.19,1.86,10.2,1.24-3.55-5.88-3.55-5.88l3.32-72.66Z" transform="translate(-4.7 -21.76)" fill="url(#linear-gradient-17)"></path><path d="M149.27,257.21l1.54,73.93s-6.65,3.4-6.49,4.95,14,.27,14,.27l4.91-66.79h2.31l4.72,66.52s8.19,1.85,10.2,1.23-3.55-5.87-3.55-5.87l3.32-72.66Z" transform="translate(-4.7 -21.76)" fill="#606161"></path><path d="M149.27,257.21l1.54,73.93s-6.65,3.4-6.49,4.95,14,.27,14,.27l4.91-66.79h2.31l4.72,66.52s8.19,1.85,10.2,1.23-3.55-5.87-3.55-5.87l3.32-72.66Z" transform="translate(-4.7 -21.76)" fill="url(#linear-gradient-18)"></path><path d="M331.6,273.86l2.4,73.51s-6.65,3.4-6.49,4.95,14,.27,14,.27l4.91-66.79h2.31l4.72,66.52s8.19,1.85,10.2,1.23-3.55-5.87-3.55-5.87L363.45,275Z" transform="translate(-4.7 -21.76)" fill="#606161"></path><path d="M331.6,273.86l2.4,73.51s-6.65,3.4-6.49,4.95,14,.27,14,.27l4.91-66.79h2.31l4.72,66.52s8.19,1.85,10.2,1.23-3.55-5.87-3.55-5.87L363.45,275Z" transform="translate(-4.7 -21.76)" fill="url(#linear-gradient-19)"></path><path d="M247.57,88c-12.9-5.87-13-31.19-13-32.26V54.07h12.63v3.3h-9.29c.25,5.54,1.79,23.39,11.07,27.61Z" transform="translate(-4.7 -21.76)" fill="#68e1fd"></path><path d="M247.57,88c-12.9-5.87-13-31.19-13-32.26V54.07h12.63v3.3h-9.29c.25,5.54,1.79,23.39,11.07,27.61Z" transform="translate(-4.7 -21.76)" fill="url(#linear-gradient-20)"></path><path d="M275.65,89.62l-1.36-3c9.31-4.23,11.49-22.6,11.94-28.33H277V55h12.7l-.06,1.71C289.59,57.81,288.51,83.77,275.65,89.62Z" transform="translate(-4.7 -21.76)" fill="url(#linear-gradient-21)"></path><path d="M275.65,89.62l-1.36-3c9.31-4.23,11.49-22.6,11.94-28.33H277V55h12.7l-.06,1.71C289.59,57.81,288.51,83.77,275.65,89.62Z" transform="translate(-4.7 -21.76)" fill="url(#linear-gradient-22)"></path><path d="M238.23,170.94c-2.47-12.83,0-36.34.27-37.14.95-2.39,4.23.7,6.94.23-2.28,8.6,2.37,35.08,3.3,36.38a3.19,3.19,0,0,0,1.06,1.07,3.47,3.47,0,0,0,1.33.27,27,27,0,0,0,6.83-.47c4-.77,6.77-.31,10.1,0a5.21,5.21,0,0,0,5.63-4.42,110.65,110.65,0,0,0,.4-29.53l5.09-.11a3.26,3.26,0,0,1,1.79.31,2.7,2.7,0,0,1,1,2.08c1.27,9.48,1,24.54-.81,33.92-2.54,13.26-4.64,17.16-4.14,30.77,0,1,.88,20.82,0,21.48-1.52,1.21-29.68,3.25-31.84-1.16-.31-.63-.42-21.55-.47-22.18C244.53,200,240.64,183.43,238.23,170.94Z" transform="translate(-4.7 -21.76)" fill="#68e1fd"></path><path d="M244.77,125a.91.91,0,0,1,.49,0,.82.82,0,0,1,.39.41,7.1,7.1,0,0,1,.44,3,7.52,7.52,0,0,0,1,3c1.14,2.61-1.64,3-4,2.87C237.86,133.89,241.29,125.85,244.77,125Z" transform="translate(-4.7 -21.76)" fill="url(#linear-gradient-23)"></path><path d="M274.49,134.92a2.4,2.4,0,0,0,1,2.61,5.29,5.29,0,0,0,2.87.75,3.39,3.39,0,0,0,2.55-.72,3.6,3.6,0,0,0,.64-2.95c-.14-1.36-.66-6.47-3.17-4.62-.81.6-.94,2-1.73,2.79S274.85,133.85,274.49,134.92Z" transform="translate(-4.7 -21.76)" fill="url(#linear-gradient-24)"></path><rect x="240.89" y="92.11" width="33.6" height="20" fill="#606161"></rect><rect x="240.89" y="92.11" width="33.6" height="20" fill="url(#linear-gradient-25)"></rect><path d="M239.12,30.59h36.69a0,0,0,0,1,0,0V56.85a18.35,18.35,0,0,1-18.35,18.35h0a18.35,18.35,0,0,1-18.35-18.35V30.59A0,0,0,0,1,239.12,30.59Z" fill="#68e1fd"></path><path d="M239.12,30.59h36.69a0,0,0,0,1,0,0V56.85a18.35,18.35,0,0,1-18.35,18.35h0a18.35,18.35,0,0,1-18.35-18.35V30.59A0,0,0,0,1,239.12,30.59Z" fill="url(#linear-gradient-26)"></path><rect x="250.6" y="73.16" width="13.68" height="4.61" fill="#68e1fd"></rect><rect x="250.6" y="73.16" width="13.68" height="3.47" opacity="0.26" fill="url(#linear-gradient-27)"></rect><rect x="254.5" y="76.51" width="5.05" height="7.8" fill="#68e1fd"></rect><rect x="250.11" y="83.98" width="13.95" height="4.06" fill="#68e1fd"></rect><rect x="250.11" y="83.98" width="13.95" height="4.06" opacity="0.26" fill="url(#linear-gradient-28)"></rect><path d="M273.26,112.2v1.15a2.19,2.19,0,0,1-.07.53H250a2.86,2.86,0,0,1-.06-.53V112.2a2.5,2.5,0,0,1,2.5-2.51h18.29A2.5,2.5,0,0,1,273.26,112.2Z" transform="translate(-4.7 -21.76)" fill="#68e1fd"></path><path d="M269.32,159.44c.87,1.46,1.76,3.08,1.45,4.75-.54,2.91-4.36,4.13-5.33,6.93-.59,1.7-.07,3.85-1.31,5.15s-3.92.68-5.14-.87-1.56-3.59-2.21-5.45c-.75-2.13-1.92-4.07-2.82-6.14a13.79,13.79,0,0,1-1.3-6.61,7.28,7.28,0,0,1,3.32-5.65c2-1.14,6-1.57,8-.32C266.38,152.66,268,157.13,269.32,159.44Z" transform="translate(-4.7 -21.76)" fill="url(#linear-gradient-29)"></path><path d="M264.63,145.71a5,5,0,0,1-.53,2.49,1.87,1.87,0,0,1,1.63-.08,17.35,17.35,0,0,1-1.89,2.53,4.34,4.34,0,0,1-2.08,1.47c-.58.13-1.18.06-1.76.19a4.61,4.61,0,0,0-2.17,1.54,5.87,5.87,0,0,0-1.64,2.69c-.38,1.91,1.05,3.7,1.31,5.63-.48.28-1.1-.49-1.57-.21a.77.77,0,0,0-.3.63,3.75,3.75,0,0,0,1.5,3.29l-.33,2.24a1.19,1.19,0,0,1-.28.72c-.48.43-1.19-.12-1.57-.64a53.59,53.59,0,0,1-5-8.45,7.87,7.87,0,0,1-.89-2.78,3,3,0,0,1,1-2.63,2.59,2.59,0,0,0,.55-.44,2,2,0,0,0,.3-1.08c.43-3.48,3.6-4.82,6.54-5.78,1.05-.35,2.13-.6,3.17-1C261.49,145.79,264.54,143.94,264.63,145.71Z" transform="translate(-4.7 -21.76)" fill="#606161"></path><path d="M264.63,145.71a5,5,0,0,1-.53,2.49,1.87,1.87,0,0,1,1.63-.08,17.35,17.35,0,0,1-1.89,2.53,4.34,4.34,0,0,1-2.08,1.47c-.58.13-1.18.06-1.76.19a4.61,4.61,0,0,0-2.17,1.54,5.87,5.87,0,0,0-1.64,2.69c-.38,1.91,1.05,3.7,1.31,5.63-.48.28-1.1-.49-1.57-.21a.77.77,0,0,0-.3.63,3.75,3.75,0,0,0,1.5,3.29l-.33,2.24a1.19,1.19,0,0,1-.28.72c-.48.43-1.19-.12-1.57-.64a53.59,53.59,0,0,1-5-8.45,7.87,7.87,0,0,1-.89-2.78,3,3,0,0,1,1-2.63,2.59,2.59,0,0,0,.55-.44,2,2,0,0,0,.3-1.08c.43-3.48,3.6-4.82,6.54-5.78,1.05-.35,2.13-.6,3.17-1C261.49,145.79,264.54,143.94,264.63,145.71Z" transform="translate(-4.7 -21.76)" fill="url(#linear-gradient-30)"></path><path d="M245.81,52.06V81.59s.62,6,3.86,9.12a25.32,25.32,0,0,0,7.11,4.64s-2.93-1.08-3.24-14.22,0-28.91,0-28.91Z" transform="translate(-4.7 -21.76)" opacity="0.26" fill="url(#linear-gradient-31)"></path><rect x="245.9" y="95.85" width="23.03" height="12.21" fill="url(#linear-gradient-32)"></rect><path d="M252.26,172l3.65-1.22s7.37,16.15,7.44,16.46,3.87-16.77,3.87-16.77l2.86.77-6.34,25.67Z" transform="translate(-4.7 -21.76)" fill="#fff"></path><polygon points="252.46 149.64 251.21 149.03 251.59 149.85 252.46 149.64" fill="url(#linear-gradient-33)"></polygon><polygon points="248.84 149.8 259 171.98 264.53 149.1 263.6 148.95 258.73 168.58 249.76 149.33 248.84 149.8" fill="#68e1fd"></polygon><circle cx="259.34" cy="177.1" r="3.79" fill="#fff"></circle><path d="M137.39,206.3c-4.87-7.8-8.22-16.35-11.33-24.91-.73-2-1.21-4.7.71-5.82a3.72,3.72,0,0,1,4.08.68,11.36,11.36,0,0,1,2.38,3.51,77.4,77.4,0,0,0,4.52,7.15l8,11.73a12.85,12.85,0,0,0,2.87,3.32c2.87,2.13,6.94,1.78,10.56,1.32a40.25,40.25,0,0,1,19.35,1.81,28.48,28.48,0,0,1,7,4.09A92,92,0,0,1,195.77,218c2.42,2.41,4.85,5.66,3.66,8.79-.87,2.26-3.38,3.57-5.8,4.35s-7.5,1.52-9.5,3a105.7,105.7,0,0,0-1.93,11l-.89,10.28c-.19,2.19-.48,4.59-2.18,6.09a9.06,9.06,0,0,1-4.38,1.73,53.22,53.22,0,0,1-20.55-.17c-1.54-.31-3.19-.78-4.09-2a5.9,5.9,0,0,1-.89-3c-1.07-10.22-.33-20.59-2.13-30.72a23.38,23.38,0,0,0-2.09-6.86C143.3,217.25,138.43,208,137.39,206.3Z" transform="translate(-4.7 -21.76)" fill="#68e1fd"></path><path d="M178.5,235.24s0,25.9-3.75,28c0,0,6.09-1,6.36-6.14.85-16.39,3.17-23.58,3.17-23.58Z" transform="translate(-4.7 -21.76)" fill="url(#linear-gradient-34)"></path><path d="M178.5,235.24a63.36,63.36,0,0,0-7.79-.58,7.4,7.4,0,0,1-2.77-.37c-1.64-.69-2.47-2.48-3.17-4.11a13.87,13.87,0,0,1-1.52-6,3.84,3.84,0,0,0-.05-1.55c-.36-1.05-1.64-1.36-2.66-1.81-3.51-1.53-4.85-5.76-5.48-9.54-.45-2.73-.69-5.73.78-8.07a27.22,27.22,0,0,0,3.25,10.92,10.05,10.05,0,0,0,3.21,3.83,4.57,4.57,0,0,0,4.77.29,2.2,2.2,0,0,0,.83-.83,3.27,3.27,0,0,0,.29-1,67.74,67.74,0,0,0,1.06-13.56,1.39,1.39,0,0,1,1.63.71,3.72,3.72,0,0,1,.33,1.9,28.28,28.28,0,0,1-2.57,11.41c-.92,2-2.07,4.3-1,6.2a6.27,6.27,0,0,0,2.31,2,19.69,19.69,0,0,0,5.22,2.58c1.87.5,3.91.45,5.61,1.38,1.47.81,3.09,2.91,2.8,4.71C183.22,236.07,180.28,235.48,178.5,235.24Z" transform="translate(-4.7 -21.76)" fill="url(#linear-gradient-35)"></path><circle cx="165.16" cy="203.03" r="4.75" fill="#fff"></circle><path d="M126.64,176.93a2.9,2.9,0,0,0,3-.81,3,3,0,0,0,.56-3,5.94,5.94,0,0,1-.3-.9,3.86,3.86,0,0,1,.44-2,8,8,0,0,0,.45-3.67,1.64,1.64,0,0,0-.25-.81,1.81,1.81,0,0,0-.84-.56,6.28,6.28,0,0,0-4.25-.18,4.53,4.53,0,0,0-2.94,2.81C121.78,170.34,123.83,175.92,126.64,176.93Z" transform="translate(-4.7 -21.76)" fill="url(#linear-gradient-36)"></path><path d="M176.5,191.51a7.22,7.22,0,0,1-1,4.77c-.79,1.05-4.91,2-6,2.78s-.82,5.62-1.33,6.74c-.35.77-1.38,3.47-3.17,3.41-1.1-.05-3.73-2.09-4.48-2.85a4.28,4.28,0,0,1-.93-2.55,94.4,94.4,0,0,1-.51-18c.12-1.82.37-3.8,1.72-5.1a6.84,6.84,0,0,1,3.67-1.57c2.59-.43,7.63-.4,9.52,1.63C176.08,183,176.33,188.7,176.5,191.51Z" transform="translate(-4.7 -21.76)" fill="url(#linear-gradient-37)"></path><path d="M173.44,179.38a10.56,10.56,0,0,1-1.77.75c-2.44,1-4.42,3.19-6.93,3.9-.88.24-2,.43-2.31,1.37a3.07,3.07,0,0,0-.11,1.21l.16,4.88a1.5,1.5,0,0,0-2.62.22,3.68,3.68,0,0,0,.33,3.41,6.94,6.94,0,0,1-2.58.38,2.66,2.66,0,0,1-2.17-1.45,6.63,6.63,0,0,1-.3-2.61c0-1.47-.34-2.92-.39-4.39a14.33,14.33,0,0,1,5.6-11.6A18.32,18.32,0,0,1,171.92,172a4.29,4.29,0,0,1,2.81.77,3.11,3.11,0,0,1,1,2.58A7.6,7.6,0,0,1,173.44,179.38Z" transform="translate(-4.7 -21.76)" fill="#606161"></path><path d="M363.1,227.48c1.95,4.16,2,8.93,2,13.52q0,10.84,0,21.68c0,4.47,0,9-1.16,13.33a4,4,0,0,1-1.36,2.42,4.21,4.21,0,0,1-2.44.51c-7.12.06-14.25-.18-21.35-.7-1.94-.15-4-.37-5.48-1.66s-2-3.68-2.29-5.78c-.69-5.05,1.51-13.21,1.19-18.3-.55-8.7-3.13-14.87,1.36-22.34a17.57,17.57,0,0,1,3.18-4C343.59,219.89,358.46,217.57,363.1,227.48Z" transform="translate(-4.7 -21.76)" fill="#68e1fd"></path><polygon points="338.38 199.88 333.4 216.43 334.48 216.74 336.8 213.34 339.81 203.21 338.38 199.88" fill="#fff"></polygon><polygon points="338.86 200.47 334 216.79 334.48 216.74 335.18 215.58 339.3 201.66 338.86 200.47" fill="#68e1fd"></polygon><ellipse cx="332.93" cy="225.32" rx="3.63" ry="4.56" fill="#fff"></ellipse><path d="M361.9,230.46s4.33,4.48,2.17,13.91-11,20.87-14.69,19.33-18.16-21-18.16-21l-.23-5.1,17.31,10.21S353.87,231.39,357,230A4.39,4.39,0,0,1,361.9,230.46Z" transform="translate(-4.7 -21.76)" fill="url(#linear-gradient-38)"></path><path d="M327.44,228.41a35.21,35.21,0,0,0-.35,11.08,1.5,1.5,0,0,0,.43,1,1.47,1.47,0,0,0,.74.23,4.05,4.05,0,0,0,1.39,0,3,3,0,0,0,1.94-2A8.88,8.88,0,0,0,332,236l.05-2.59a16.61,16.61,0,0,0-.24-4C331.13,226.63,328.22,224.33,327.44,228.41Z" transform="translate(-4.7 -21.76)" fill="url(#linear-gradient-39)"></path><path d="M333.5,228.07c-.45-.85-1.16-1.83-2.11-1.68a2,2,0,0,0-1.27,1,8.11,8.11,0,0,0-.75,6,22,22,0,0,0,2.38,5.67,5.59,5.59,0,0,0,1.38,1.87,4.61,4.61,0,0,0,2,.8,2.84,2.84,0,0,0,2.15-.22,2.55,2.55,0,0,0,.9-2.06C338.31,235.28,335.44,231.67,333.5,228.07Z" transform="translate(-4.7 -21.76)" fill="url(#linear-gradient-40)"></path><path d="M338.06,213.86a11.79,11.79,0,0,0,0,3.25,4,4,0,0,0,1.68,2.7c1.1.68,2.72.7,3.35,1.84.47.86.15,2.06.81,2.78a2.66,2.66,0,0,0,1.9.59c1.6.06,3.34.09,4.62-.88,1.59-1.21,1.85-3.46,2-5.46l.6-9.44a8.05,8.05,0,0,0-.64-4.62,6.67,6.67,0,0,0-2.29-2.09,9.19,9.19,0,0,0-4.77-1.65c-2.32,0-5.38,1.68-6.31,3.91a13,13,0,0,0-.45,3.74Z" transform="translate(-4.7 -21.76)" fill="url(#linear-gradient-41)"></path><path d="M343.93,197.66c-1.65.26-3.45-.94-4.94-.18a3.38,3.38,0,0,0-1.46,3.22,2.07,2.07,0,0,0,.3,1.12,1.93,1.93,0,0,0,.84.58,11.51,11.51,0,0,0,6.48.4,2.72,2.72,0,0,1,1.33,0,2.29,2.29,0,0,1,.86.62,7.2,7.2,0,0,1,2.27,3.16c.39,1.47-.16,3.11.46,4.49a4.34,4.34,0,0,0,1.21-1.35,3.17,3.17,0,0,1-.86,4A6.15,6.15,0,0,1,352.7,216a16.4,16.4,0,0,0,3.68-4,7.35,7.35,0,0,0,1.13-1.93c.63-1.89-.37-3.91-1.39-5.62-1.3-2.22-2.79-4.51-5.1-5.66a7.13,7.13,0,0,0-5.79-.2A6.82,6.82,0,0,1,343.93,197.66Z" transform="translate(-4.7 -21.76)" fill="#606161"></path><path d="M175.91,224.29a2,2,0,0,0-1-.33.83.83,0,0,0-.81.52,1.74,1.74,0,0,1-.13.51.73.73,0,0,1-.46.25,22.77,22.77,0,0,1-3.79.11,3.42,3.42,0,0,0-3.13,1.76,2.9,2.9,0,0,0,0,1.95,6,6,0,0,0,4.64,3.72,17.72,17.72,0,0,0,6.2-.16,2.9,2.9,0,0,0,1.39-.45c.79-.61,3.32-2.26,2.4-2.64C177.48,228,178.07,225.53,175.91,224.29Z" transform="translate(-4.7 -21.76)" fill="url(#linear-gradient-42)"></path><path d="M168.8,220.42l-.76-.2a31.46,31.46,0,0,0-4.58-.86c-1.28,0-7.21-2-7.77-5.2a94.68,94.68,0,0,1-.7-10.74l.63-.33,1.19-.59,1.48-.76s-.5,8.5,1.25,11.17,7.61,3.09,8.43,5.3c.07.17.1.3.17.43Z" transform="translate(-4.7 -21.76)" fill="#fff"></path><path d="M169.9,201.78l2.94,1.78s1.7,2.55.62,4.8-4.72,8.38-3.6,11.69l-1.08.36-1.42-2.75s-.32-3.2,2.47-8.3S169.9,201.78,169.9,201.78Z" transform="translate(-4.7 -21.76)" fill="#fff"></path><path d="M169.79,201.76,168.43,203l2.32.19A4.55,4.55,0,0,0,169.79,201.76Z" transform="translate(-4.7 -21.76)" fill="url(#linear-gradient-43)"></path><polygon points="153.59 179.98 154.89 181.48 154.17 181.6 153.5 181.69 153.59 179.98" fill="url(#linear-gradient-44)"></polygon><path d="M168.76,220.18c-.21-.18-1.75-2.09,1.39-8.68,2.92-6.12.83-9,.81-9L172,203c.09.12,2,2.24-1.14,8.9-2.86,6-1.35,8.16-1.33,8.17Z" transform="translate(-4.7 -21.76)" fill="#68e1fd"></path><path d="M169.32,220.22l-.52.2-.56.2c-.07-.13-.13-.3-.2-.4-.63-1-1.91-1.35-3.59-1.84a15.65,15.65,0,0,1-6.36-3.1c-2.34-2-2.5-9.19-2.47-12.19l1.19-.59c-.1,3.19.16,10.24,2,11.92a14.38,14.38,0,0,0,5.93,2.84,11.91,11.91,0,0,1,3.36,1.38A3.4,3.4,0,0,1,169.32,220.22Z" transform="translate(-4.7 -21.76)" fill="#68e1fd"></path><polygon points="174.01 205.3 182.52 200.19 175.56 193.7 172.47 203.59 174.01 205.3" fill="url(#linear-gradient-45)"></polygon><path d="M361.75,225.67s4.33,4.48,2.16,13.91-11,20.87-14.68,19.33-14.1-17.16-14.1-17.16l2.66-4.8,10.36,6s5.56-16.38,8.65-17.77A4.39,4.39,0,0,1,361.75,225.67Z" transform="translate(-4.7 -21.76)" fill="#68e1fd"></path><polygon points="350.98 199.46 348.08 197.84 334.48 216.74 336.64 219.21 350.98 199.46" fill="#fff"></polygon><polygon points="349.24 198.57 335.25 217.59 335.87 218.36 350.17 198.96 349.24 198.57" fill="#68e1fd"></polygon></svg>