<?xml version="1.0" encoding="UTF-8" standalone="no"?> <svg id="Layer_1" enable-background="new 0 0 512.023 512.023" height="512" viewBox="0 0 512.023 512.023" width="512" xmlns="http://www.w3.org/2000/svg"><g><path d="m106.281 0v150.99l102.182 66.53v-217.52z" fill="#ff6326"/><path d="m303.56 0v217.519l102.183-66.529v-150.99z" fill="#ff6326"/><path d="m303.56 0v217.519l102.183-66.529v-150.99z" fill="#ff3838"/><path d="m178.463 0v197.987l72.986 47.52h9.125l72.986-47.521v-197.986z" fill="#ff8e00"/><path d="m333.56 197.986v-197.986h-77.549v245.507h4.563z" fill="#ff6326"/><path d="m256.011 215.507c-24.814 0-45.002 20.188-45.002 45.002v34.447h90.004v-34.447c0-24.814-20.187-45.002-45.002-45.002z" fill="#fff16b"/><path d="m301.013 260.509c0-24.814-20.188-45.002-45.002-45.002v79.449h45.002z" fill="#ffd321"/><circle cx="256.011" cy="386.431" fill="#ffd321" r="125.593"/><path d="m256.011 260.838v251.186c69.252 0 125.593-56.341 125.593-125.593s-56.341-125.593-125.593-125.593z" fill="#ffaf00"/><path d="m332.106 401.431h48.599c.588-4.92.899-9.924.899-15s-.311-10.08-.899-15h-48.599c3.064-23.414 13.155-44.157 27.557-55.838-5.684-8.291-12.334-15.868-19.79-22.568-20.844 17.396-34.684 46.158-37.986 78.406h-30.876v-109.694c-4.92-.588-9.924-.899-15-.899s-10.08.311-15 .899v109.693h-30.876c-3.302-32.249-17.142-61.01-37.986-78.406-7.455 6.7-14.106 14.277-19.789 22.568 14.402 11.681 24.493 32.424 27.557 55.838h-48.599c-.588 4.92-.899 9.924-.899 15s.311 10.08.899 15h48.599c-3.064 23.417-13.155 44.161-27.557 55.839 5.684 8.291 12.334 15.868 19.79 22.568 20.844-17.393 34.684-46.154 37.986-78.407h30.876v109.693c4.92.588 9.924.899 15 .899s10.08-.311 15-.899v-109.692h30.876c3.302 32.252 17.141 61.014 37.986 78.407 7.455-6.7 14.106-14.277 19.79-22.568-14.403-11.678-24.495-32.422-27.558-55.839z" fill="#ffaf00"/><path d="m381.604 386.431c0-5.076-.311-10.08-.899-15h-48.599c3.064-23.414 13.155-44.157 27.557-55.838-5.684-8.291-12.334-15.868-19.79-22.568-20.844 17.396-34.684 46.158-37.986 78.406h-30.876v-109.694c-4.92-.588-9.924-.899-15-.899v251.186c5.076 0 10.08-.311 15-.899v-109.694h30.876c3.302 32.252 17.141 61.014 37.986 78.407 7.455-6.7 14.106-14.277 19.79-22.568-14.402-11.677-24.493-32.422-27.557-55.839h48.599c.588-4.92.899-9.924.899-15z" fill="#ff8e00"/></g></svg>